<?xml version="1.0" standalone="no"?><!DOCTYPE svg PUBLIC "-//W3C//DTD SVG 1.1//EN" "http://www.w3.org/Graphics/SVG/1.1/DTD/svg11.dtd"><svg t="1714049615870" class="icon" viewBox="0 0 1160 1024" version="1.1" xmlns="http://www.w3.org/2000/svg" p-id="2629" xmlns:xlink="http://www.w3.org/1999/xlink" width="226.5625" height="200"><path d="M646.549724 1024c-116.290221 0-232.580442-41.993691-323.028392-113.059937-29.072555-22.611987-32.302839-61.375394-9.690851-90.447949 22.611987-29.072555 61.375394-32.302839 90.447949-9.690852 71.066246 54.914826 158.283912 87.217666 245.501578 87.217665C866.20903 898.018927 1034.183793 730.044164 1034.183793 516.845426c-3.230284-216.429022-174.435331-387.634069-387.634069-387.63407S262.145938 300.416404 262.145938 513.615142c0 35.533123-29.072555 64.605678-64.605678 64.605678s-64.605678-29.072555-64.605678-64.605678C132.934582 229.350158 362.284739 0 646.549724 0s513.615142 229.350158 513.615142 513.615142c0 281.0347-229.350158 510.384858-513.615142 510.384858z" fill="#444444" p-id="2630"></path><path d="M165.237421 594.37224c-22.611987 0-45.223975-12.921136-58.145111-35.533123L6.953509 358.561514c-16.15142-32.302839-3.230284-71.066246 29.072555-87.217665s71.066246-3.230284 87.217666 29.072555L194.309976 442.548896l145.362776-71.066246c32.302839-16.15142 71.066246-3.230284 87.217666 29.072555s3.230284 71.066246-29.072556 87.217666L194.309976 587.911672c-9.690852 3.230284-19.381703 6.460568-29.072555 6.460568z" fill="#444444" p-id="2631"></path></svg>