<?xml version="1.0" standalone="no"?><!DOCTYPE svg PUBLIC "-//W3C//DTD SVG 1.1//EN" "http://www.w3.org/Graphics/SVG/1.1/DTD/svg11.dtd"><svg t="1714049560007" class="icon" viewBox="0 0 1173 1024" version="1.1" xmlns="http://www.w3.org/2000/svg" p-id="1485" xmlns:xlink="http://www.w3.org/1999/xlink" width="229.1015625" height="200"><path d="M526.536278 1024C242.271293 1024 12.921136 794.649842 12.921136 513.615142 12.921136 229.350158 245.501577 0 526.536278 0c284.264984 0 513.615142 229.350158 513.615142 513.615142 0 35.533123-29.072555 64.605678-64.605679 64.605678s-64.605678-29.072555-64.605678-64.605678C910.940063 300.416404 739.735016 129.211356 526.536278 129.211356S142.132492 300.416404 142.132492 513.615142c0 213.198738 167.974763 381.173502 384.403786 381.173502 87.217666 0 174.435331-29.072555 245.501577-87.217666 29.072555-22.611987 67.835962-16.15142 90.447949 9.690852 22.611987 29.072555 16.15142 67.835962-9.690851 90.447949-93.678233 74.29653-209.968454 116.290221-326.258675 116.290221z" fill="#444444" p-id="1486"></path><path d="M1007.84858 594.37224c-9.690852 0-19.381703-3.230284-29.072555-6.460568L775.268139 487.772871c-32.302839-16.15142-45.223975-54.914826-29.072555-87.217666 16.15142-32.302839 54.914826-45.223975 87.217665-29.072555l145.362776 71.066246 71.066246-142.132492c16.15142-32.302839 54.914826-45.223975 87.217666-29.072555 32.302839 16.15142 45.223975 54.914826 29.072555 87.217665L1065.993691 558.839117c-9.690852 22.611987-32.302839 35.533123-58.145111 35.533123z" fill="#444444" p-id="1487"></path></svg>