<?xml version="1.0" standalone="no"?><!DOCTYPE svg PUBLIC "-//W3C//DTD SVG 1.1//EN" "http://www.w3.org/Graphics/SVG/1.1/DTD/svg11.dtd"><svg t="1714049769096" class="icon" viewBox="0 0 1024 1024" version="1.1" xmlns="http://www.w3.org/2000/svg" p-id="5615" xmlns:xlink="http://www.w3.org/1999/xlink" width="200" height="200"><path d="M64 176.896C64 149.888 85.888 128 112.896 128h834.816a48.896 48.896 0 1 1 0 97.728H112.896A48.896 48.896 0 0 1 64 176.896zM283.52 506.048c0-27.008 21.888-48.896 48.896-48.896h341.12a48.896 48.896 0 1 1 0 97.728h-341.12a48.896 48.896 0 0 1-48.896-48.832z m-6.016 280.256a48.896 48.896 0 1 0 0 97.728h450.816a48.896 48.896 0 0 0 0-97.728H277.44z" p-id="5616"></path></svg>