<?xml version="1.0" standalone="no"?><!DOCTYPE svg PUBLIC "-//W3C//DTD SVG 1.1//EN" "http://www.w3.org/Graphics/SVG/1.1/DTD/svg11.dtd"><svg t="1714050088099" class="icon" viewBox="0 0 1024 1024" version="1.1" xmlns="http://www.w3.org/2000/svg" p-id="8668" xmlns:xlink="http://www.w3.org/1999/xlink" width="200" height="200"><path d="M832.161576 18.400673a23.317658 23.317658 0 0 1 32.746102-3.446958 23.317658 23.317658 0 0 1 6.589773 27.474284l-1.368645 2.686599-1.77417 2.585219-396.298797 489.011831 0.253453 0.101381c149.182318 97.832781 215.536261 239.96911 197.794564 423.114103l-1.013811 10.036731-0.861739 6.995297h290.913123c9.479135 0 17.741696 5.728033 21.442106 14.700263l1.013812 2.787981 0.608286 2.686599 0.202763 3.142815a23.317658 23.317658 0 0 1-17.437553 22.405227l-2.6866 0.658978-3.142814 0.202762H17.66566L832.161576 18.349983z m-187.960596 962.613732l-1.419336 10.036731-2.129003 9.225682H959.090738h-317.576358l1.926242-13.280927c24.179397-168.748874-22.101084-301.203307-138.689372-397.413989l-7.603584-6.184248c118.210386 93.625464 167.633682 222.582248 148.320578 387.478639l-1.267264 10.138112z m-201.596356-407.906935l-327.207564 403.85169h505.891787c23.419039-176.707292-34.216128-309.060344-174.223454-400.962328l-4.460769-2.889362z m430.920449-183.601208a81.51042 81.51042 0 1 1-40.70452 152.173061 24.179397 24.179397 0 0 1-3.041433 12.419187l-1.926241 2.940052-2.078313 2.331766-37.511015 35.686154 45.976338 47.649127a23.317658 23.317658 0 0 1 3.041434 28.386713l-1.622098 2.382456-2.027623 2.179695a23.317658 23.317658 0 0 1-28.031879 3.092124l-2.534528-1.622098-2.331766-2.027623-46.229791-47.953269-44.962526 42.833523a23.317658 23.317658 0 0 1-28.437404 2.838671l-2.331766-1.672788-2.129004-2.027623a23.317658 23.317658 0 0 1-2.940052-28.031879l1.622098-2.534528 2.129003-2.331766 44.709074-42.58007-39.335874-40.75521a23.317658 23.317658 0 0 1-3.041434-28.386714l1.672789-2.382456 1.976931-2.179694a23.317658 23.317658 0 0 1 27.170141-3.751102l2.534528 1.622098 0.861739 0.658977 2.331766 2.078313 39.538637 40.957973 37.764467-35.888917a23.216276 23.216276 0 0 1 14.193356-6.33632 81.51042 81.51042 0 0 1 65.694966-129.767833z m0 46.635315a34.976486 34.976486 0 1 0 0 69.800901 34.976486 34.976486 0 0 0 0-69.851591z" fill="#000000" p-id="8669"></path></svg>