<?xml version="1.0" standalone="no"?><!DOCTYPE svg PUBLIC "-//W3C//DTD SVG 1.1//EN" "http://www.w3.org/Graphics/SVG/1.1/DTD/svg11.dtd"><svg t="1714050401998" class="icon" viewBox="0 0 1024 1024" version="1.1" xmlns="http://www.w3.org/2000/svg" p-id="16940" xmlns:xlink="http://www.w3.org/1999/xlink" width="200" height="200"><path d="M743.539056 941.79236v59.656629l178.25654-107.807641-178.25654-107.62355v58.793708H281.208809v-58.793708L102.963775 893.641348l178.245034 107.807641v-59.656629zM359.05582 615.941753H667.786067v104.666607H359.05582z" fill="#CEE8FA" p-id="16941"></path><path d="M932.300225 876.037753L753.859596 768.575281a20.019775 20.019775 0 0 0-20.48-0.345169 20.077303 20.077303 0 0 0-10.309034 17.603596v38.555326H301.504719v-38.543821c0-7.329079-4.026966-13.956315-10.320539-17.626606a20.433978 20.433978 0 0 0-20.468495 0.345168L92.286562 876.210337A20.468494 20.468494 0 0 0 82.495281 893.641348c0 7.156494 3.670292 13.78373 9.791281 17.442517l178.429123 107.635056a20.019775 20.019775 0 0 0 20.468495 0.345169c6.466157-3.658787 10.320539-10.286022 10.320539-17.615101v-39.418247H723.243146v39.418247c0 7.329079 4.026966 13.956315 10.320539 17.615101 2.968449 1.748854 6.477663 2.623281 9.963866 2.623281a18.408989 18.408989 0 0 0 10.332045-3.141034l178.417617-107.635056c6.120989-3.831371 9.802787-10.286022 9.802787-17.442517a20.249888 20.249888 0 0 0-9.802787-17.442517z m-168.637843 89.479191v-23.724584c0-11.160449-9.089438-20.238382-20.29591-20.238382H281.208809c-11.194966 0-20.468494 8.893843-20.11182 20.065797v23.724585L142.312989 893.825438l118.59991-71.346337v22.666068c0 11.160449 9.089438 20.249888 20.29591 20.249887h462.157663c11.194966 0 20.29591-9.077933 20.29591-20.249887v-22.666068L882.434876 893.986517l-118.772494 71.518921zM607.266517 344.167551c-11.183461 0-20.284404 9.066427-20.284405 20.238382v231.297438h-227.926292c-11.206472 0-20.29591 9.077933-20.29591 20.249887v104.655102c0 11.160449 9.089438 20.238382 20.284405 20.238382h308.753258c11.194966 0 20.29591-9.077933 20.29591-20.249888v-104.655101c0-11.160449-9.089438-20.238382-20.29591-20.238382h-40.235146V364.405933c0-11.160449-9.089438-20.238382-20.284405-20.238382z m40.074067 356.029842H379.340225v-64.017258h267.988854v64.017258z" fill="#2D527C" p-id="16942"></path><path d="M183.95182 229.905258H305.70427c11.194966 0 20.284404-9.066427 20.284404-20.226876V168.67236h71.726023v362.12782a20.284404 20.284404 0 1 0 40.580314-0.172584V148.445483c0-11.160449-9.089438-20.238382-20.29591-20.238382h-112.467416c-11.206472 0-20.29591 9.066427-20.29591 20.238382v40.821933h-81.172135V40.465258H821.386067v148.974742h-81.160629v-40.994517c0-11.160449-9.100944-20.238382-20.29591-20.238382h-112.133753c-11.194966 0-20.29591 9.066427-20.29591 20.238382v115.309304c0 11.160449 9.100944 20.226876 20.29591 20.226876 11.206472 0 20.29591-9.066427 20.29591-20.226876V168.67236h71.369349v40.994516c0 11.160449 9.089438 20.226876 20.29591 20.226877h121.740944c11.206472 0 20.29591-9.066427 20.29591-20.226877V20.238382c0-11.160449-9.089438-20.238382-20.29591-20.238382H183.95182c-11.194966 0-20.29591 9.066427-20.29591 20.238382v189.44c0 11.160449 9.089438 20.226876 20.29591 20.226876z" fill="#2D527C" p-id="16943"></path></svg>