<?xml version="1.0" encoding="utf-8"?>
<!-- Generator: Adobe Illustrator 22.1.0, SVG Export Plug-In . SVG Version: 6.00 Build 0)  -->
<svg version="1.1" id="图层_1" xmlns="http://www.w3.org/2000/svg" xmlns:xlink="http://www.w3.org/1999/xlink" x="0px" y="0px"
	 viewBox="0 0 174 184" style="enable-background:new 0 0 174 184;" xml:space="preserve">
<style type="text/css">
	.st0{fill:#ECECEC;stroke:#000000;stroke-width:2;stroke-miterlimit:10;}
	.st1{fill:#FCFCFC;stroke:#000000;stroke-width:2;stroke-miterlimit:10;}
	.st2{fill:#30DDE5;stroke:#000000;stroke-width:2;stroke-miterlimit:10;}
	.st3{fill:#CECECE;stroke:#000000;stroke-width:2;stroke-miterlimit:10;}
	.st4{fill:#D31841;stroke:#FFFFFF;stroke-miterlimit:10;}
</style>
<g>
	<polygon class="st0" points="135.5,1.2 1,1.2 1,138 22.3,164.5 125,164.5 135.5,152.2 	"/>
	<path class="st1" d="M86.4,109.6c-1.3-2.6-2-4.1-3.3-6.8H42c-1.3,2.6-2,4.1-3.3,6.8v54.9h47.6V109.6z"/>
	<path class="st1" d="M28.5,1.5v50.7c5.2,4.9,8.1,7.7,13.3,12.6h49.9c5.2-4.9,8.1-7.7,13.3-12.6V1.5H28.5z"/>
	<rect x="48.6" y="120.8" class="st0" width="28.1" height="25"/>
</g>
<g>
	<polygon class="st0" points="143.3,10.1 8.7,10.1 8.7,146.9 30.1,173.3 132.8,173.3 143.3,161.1 	"/>
	<path class="st1" d="M94.1,118.5c-1.3-2.6-2-4.1-3.3-6.8H49.7c-1.3,2.6-2,4.1-3.3,6.8v54.9h47.6V118.5z"/>
	<path class="st1" d="M36.2,10.4V61c5.2,4.9,8.1,7.7,13.3,12.6h49.9c5.2-4.9,8.1-7.7,13.3-12.6l0-50.7H36.2z"/>
	<rect x="56.4" y="129.7" class="st0" width="28.1" height="25"/>
</g>
<polygon class="st0" points="151,20.7 16.5,20.7 16.5,157.6 37.8,184 140.5,184 151,171.8 "/>
<path class="st1" d="M101.8,129.1c-1.3-2.6-2-4.1-3.3-6.8H57.5c-1.3,2.6-2,4.1-3.3,6.8V184h47.6V129.1z"/>
<path class="st2" d="M44,21v50.7c5.2,4.9,8.1,7.7,13.3,12.6h49.9c5.2-4.9,8.1-7.7,13.3-12.6V21H44z"/>
<rect x="64.1" y="140.4" class="st0" width="28.1" height="25"/>
<ellipse class="st3" cx="141.8" cy="151" rx="32.1" ry="33"/>
<polygon class="st4" points="155.3,127.3 164.9,137.2 151.4,151 164.9,164.8 155.3,174.7 141.8,160.9 128.3,174.7 118.7,164.8 
	132.2,151 118.7,137.2 128.3,127.3 141.8,141.1 "/>
</svg>
