<?xml version="1.0" encoding="utf-8"?>
<!-- Generator: Adobe Illustrator 22.1.0, SVG Export Plug-In . SVG Version: 6.00 Build 0)  -->
<svg version="1.1" id="图层_1" xmlns="http://www.w3.org/2000/svg" xmlns:xlink="http://www.w3.org/1999/xlink" x="0px" y="0px"
	 viewBox="0 0 177.3 187" style="enable-background:new 0 0 177.3 187;" xml:space="preserve">
<style type="text/css">
	.st0{fill:#ECECEC;stroke:#000000;stroke-width:2;stroke-miterlimit:10;}
	.st1{fill:#FFFFFF;stroke:#000000;stroke-width:2;stroke-miterlimit:10;}
	.st2{stroke:#000000;stroke-width:2;stroke-miterlimit:10;}
	.st3{fill:#30DDE5;}
</style>
<polygon class="st0" points="108.5,2 0.5,2 0.5,186 152.5,186 152.5,46 "/>
<polygon class="st1" points="11.8,121.3 47.9,62.4 77.3,121.3 "/>
<polygon class="st1" points="75.7,121.1 111.7,62.2 141.2,121.1 "/>
<polygon class="st1" points="38,121.1 91.2,40.9 114.2,121.1 "/>
<path class="st2" d="M109.3,46h43.1c0.2,0,0.3-0.3,0.2-0.4L109.4,2.4c-0.2-0.2-0.4,0-0.4,0.2v43.1C109,45.9,109.1,46,109.3,46z"/>
<polygon class="st3" points="127.6,184.6 127.6,168.8 75.1,168.8 75.1,142.8 127.6,142.8 127.6,127.1 177.5,155.8 "/>
</svg>
