<?xml version="1.0" encoding="utf-8"?>
<!-- Generator: Adobe Illustrator 22.1.0, SVG Export Plug-In . SVG Version: 6.00 Build 0)  -->
<svg version="1.1" id="图层_1" xmlns="http://www.w3.org/2000/svg" xmlns:xlink="http://www.w3.org/1999/xlink" x="0px" y="0px"
	 viewBox="0 0 177.3 187" style="enable-background:new 0 0 177.3 187;" xml:space="preserve">
<style type="text/css">
	.st0{fill:#FFFFFF;stroke:#000000;stroke-width:2;stroke-miterlimit:10;}
	.st1{fill:#ECECEC;stroke:#000000;stroke-width:2;stroke-miterlimit:10;}
	.st2{stroke:#000000;stroke-width:2;stroke-miterlimit:10;}
	.st3{fill:#30DDE5;}
</style>
<g>
	<path class="st0" d="M28.8,141.3"/>
	<path class="st0" d="M48.3,141.9"/>
</g>
<polygon class="st1" points="109,2 1,2 1,186 153,186 153,46 "/>
<path class="st2" d="M108.1,46h43.8c0.1,0,0.1-0.1,0-0.1L108.1,2.1c0,0-0.1,0-0.1,0L108.1,46C108,46,108,46,108.1,46z"/>
<g>
	<path d="M33.6,80.6c-1.3-5.1-3.8-10.3-10.7-10.3c-6.1,0-8.4,4.3-8.4,8.4c0,5.6,3.7,8.3,9.9,11.4c6.1,3.1,13.4,6.7,13.4,15.5
		c0,8.2-7,14.8-17,14.8c-4.3,0-8.7-1.3-12-2.4c-0.5-1.9-1.6-8.3-2.1-12l2.4-0.6c1.3,4.8,4.7,12.1,12.8,12.1c5.9,0,9.3-3.7,9.3-9.3
		c0-5.8-4-8.5-10-11.7c-5.1-2.7-12.8-6.5-12.8-15.4c0-7.5,5.5-13.6,15.8-13.6c4.6,0,9,1.2,10.7,1.3c0.3,2.8,0.6,6.1,1.2,11.2
		L33.6,80.6z"/>
	<path d="M94.6,70.9c-5.2,0.7-6.5,1.4-9.3,8.4c-2.1,5.1-12.8,31.2-16.7,40.9H66c-4.6-12.5-11.3-30.7-15.7-42.3
		c-2.2-5.8-3.5-6.5-8.2-7v-2.2h19.8v2.2c-5.8,0.6-6.1,1.6-5,4.4c1.9,5.7,7.6,21.2,12.5,34.1c4.1-10,9.3-22.7,12.9-32.5
		c1.7-4.5,0.8-5.2-5.6-6v-2.2h17.9V70.9z"/>
	<path d="M147.3,98c-4.8,0.6-5.1,1.1-5.1,5.7v6.5c0,2.7,0.1,5.3,0.5,7.4c-4.8,1.1-10.9,2.8-17.4,2.8c-17.4,0-28.6-11-28.6-26.6
		c0-16.9,13.4-26.2,28.9-26.2c8.2,0,13.8,1.8,16.2,1.9c0.2,2.9,0.5,7.7,1.2,12.6l-2.3,0.5c-1.9-6.6-4.2-9.6-9.1-11.3
		c-1.8-0.6-4.4-0.9-7-0.9c-11.9,0-19.8,7.7-19.8,22.4c0,12.5,6.3,24.7,21.6,24.7c2.6,0,5.1-0.5,6.6-1.2c1.6-0.9,2.6-1.9,2.6-5.1
		v-6.3c0-5.7-0.6-6.3-8.1-6.8v-2.3h20V98z"/>
</g>
<polygon class="st3" points="127.5,184.2 127.5,168.4 75,168.4 75,142.5 127.5,142.5 127.5,126.7 177.3,155.4 "/>
</svg>
