<?xml version="1.0" encoding="utf-8"?>
<!-- Generator: Adobe Illustrator 22.1.0, SVG Export Plug-In . SVG Version: 6.00 Build 0)  -->
<svg version="1.1" id="图层_1" xmlns="http://www.w3.org/2000/svg" xmlns:xlink="http://www.w3.org/1999/xlink" x="0px" y="0px"
	 viewBox="0 0 177.3 187" style="enable-background:new 0 0 177.3 187;" xml:space="preserve">
<style type="text/css">
	.st0{fill:#FFFFFF;stroke:#000000;stroke-width:2;stroke-miterlimit:10;}
	.st1{fill:#ECECEC;stroke:#000000;stroke-width:2;stroke-miterlimit:10;}
	.st2{stroke:#000000;stroke-width:2;stroke-miterlimit:10;}
	.st3{fill:#30DDE5;}
	.st4{font-family:'AdobeSongStd-Light-GBpc-EUC-H';}
	.st5{font-size:83.1357px;}
</style>
<g>
	<path class="st0" d="M28.8,141.3"/>
	<path class="st0" d="M48.3,141.9"/>
</g>
<polygon class="st1" points="109,2 1,2 1,186 153,186 153,46 "/>
<path class="st2" d="M108.1,46h43.8c0.1,0,0.1-0.1,0-0.1L108.1,2.1c0,0-0.1,0-0.1,0L108.1,46C108,46,108,46,108.1,46z"/>
<polygon class="st3" points="127.5,183.2 127.5,167.4 75,167.4 75,141.5 127.5,141.5 127.5,125.7 177.3,154.4 "/>
<text transform="matrix(1 0 0 1 3.1883 122.6666)" class="st4 st5">PDF</text>
</svg>
