<?xml version="1.0" encoding="utf-8"?>
<!-- Generator: Adobe Illustrator 22.1.0, SVG Export Plug-In . SVG Version: 6.00 Build 0)  -->
<svg version="1.1" id="图层_1" xmlns="http://www.w3.org/2000/svg" xmlns:xlink="http://www.w3.org/1999/xlink" x="0px" y="0px"
	 viewBox="0 0 177.3 187" style="enable-background:new 0 0 177.3 187;" xml:space="preserve">
<style type="text/css">
	.st0{fill:#ECECEC;stroke:#000000;stroke-width:2;stroke-miterlimit:10;}
	.st1{fill:#FFFFFF;stroke:#000000;stroke-width:2;stroke-miterlimit:10;}
	.st2{stroke:#000000;stroke-width:2;stroke-miterlimit:10;}
	.st3{fill:#30DDE5;}
</style>
<polygon class="st0" points="132.5,2 24.5,2 24.5,186 176.5,186 176.5,46 "/>
<polygon class="st1" points="35.8,145.3 71.9,86.4 101.3,145.3 "/>
<polygon class="st1" points="99.7,145.1 135.7,86.2 165.2,145.1 "/>
<polygon class="st1" points="62,145.1 115.2,64.9 138.2,145.1 "/>
<path class="st2" d="M132.7,45.6h43.1c0.2,0,0.3-0.3,0.2-0.4L132.9,2.1c-0.2-0.2-0.4,0-0.4,0.2v43.1
	C132.4,45.5,132.5,45.6,132.7,45.6z"/>
<polygon class="st3" points="53,68.3 53,52.5 0.5,52.5 0.5,26.5 53,26.5 53,10.7 102.8,39.5 "/>
</svg>
