<?xml version="1.0" encoding="utf-8"?>
<!-- Generator: Adobe Illustrator 22.1.0, SVG Export Plug-In . SVG Version: 6.00 Build 0)  -->
<svg version="1.1" id="图层_1" xmlns="http://www.w3.org/2000/svg" xmlns:xlink="http://www.w3.org/1999/xlink" x="0px" y="0px"
	 viewBox="0 0 178 186" style="enable-background:new 0 0 178 186;" xml:space="preserve">
<style type="text/css">
	.st0{fill:#ECECEC;stroke:#000000;stroke-width:2;stroke-miterlimit:10;}
	.st1{fill:#FCFCFC;stroke:#000000;stroke-width:2;stroke-miterlimit:10;}
	.st2{fill:#30DDE5;stroke:#000000;stroke-width:2;stroke-miterlimit:10;}
	.st3{fill:#616263;stroke:#000000;stroke-width:2;stroke-miterlimit:10;}
	.st4{fill:#FFFFFF;}
</style>
<polygon class="st0" points="168,1.2 1,1.2 1,155.3 27.5,185 155,185 168,171.2 "/>
<path class="st1" d="M110.8,123.2c-1.7-3-2.6-4.6-4.3-7.6H52.2c-1.7,3-2.6,4.6-4.3,7.6V185h62.9V123.2z"/>
<path class="st1" d="M35.2,1.5v57c6.4,5.5,10.1,8.7,16.5,14.2h61.9c6.4-5.5,10.1-8.7,16.5-14.2v-57H35.2z"/>
<rect x="60.2" y="132.9" class="st0" width="22.7" height="34.8"/>
<polygon class="st0" points="168,1.2 1,1.2 1,155.3 27.5,185 155,185 168,171.2 "/>
<polygon class="st0" points="168,1.2 1,1.2 1,155.3 27.5,185 155,185 168,171.2 "/>
<path class="st1" d="M110.8,123.2c-1.7-3-2.6-4.6-4.3-7.6H52.2c-1.7,3-2.6,4.6-4.3,7.6V185h62.9V123.2z"/>
<path class="st1" d="M35.2,1.5v57c6.4,5.5,10.1,8.7,16.5,14.2h61.9c6.4-5.5,10.1-8.7,16.5-14.2v-57H35.2z"/>
<rect x="60.2" y="132.9" class="st0" width="22.7" height="34.8"/>
<path class="st1" d="M35.2,1.5v57c6.4,5.5,10.1,8.7,16.5,14.2h61.9c6.4-5.5,10.1-8.7,16.5-14.2v-57H35.2z"/>
<polygon class="st0" points="168,1.2 1,1.2 1,155.3 27.5,185 155,185 168,171.2 "/>
<path class="st1" d="M107,123.2c-1.6-3-2.5-4.6-4-7.6h-51c-1.6,3-2.5,4.6-4,7.6V185H107V123.2z"/>
<path class="st2" d="M35.2,1.5v57c6.4,5.5,10.1,8.7,16.5,14.2h61.9c6.4-5.5,10.1-8.7,16.5-14.2v-57H35.2z"/>
<rect x="60.2" y="135.9" class="st0" width="34.8" height="28.1"/>
<ellipse class="st3" cx="145.6" cy="152.9" rx="31.4" ry="32.9"/>
<g>
	<polygon class="st4" points="166.3,137.4 130.9,174.6 125,168.4 160.4,131.2 	"/>
	<polygon class="st4" points="130.9,131.2 166.3,168.4 160.4,174.6 125,137.4 	"/>
</g>
<polygon class="st4" points="160.4,152.9 145.6,168.4 130.9,152.9 145.6,137.4 "/>
<polygon class="st4" points="144.9,132.7 140.7,127.9 145.3,123.4 149.6,128.3 "/>
<polygon class="st4" points="121.9,155 117.7,150.2 122.3,145.7 126.5,150.6 "/>
<polygon class="st4" points="146,182.4 141.7,177.6 146.3,173.1 150.6,178 "/>
</svg>
