<?xml version="1.0" encoding="utf-8"?>
<!-- Generator: Adobe Illustrator 22.1.0, SVG Export Plug-In . SVG Version: 6.00 Build 0)  -->
<svg version="1.1" id="图层_1" xmlns="http://www.w3.org/2000/svg" xmlns:xlink="http://www.w3.org/1999/xlink" x="0px" y="0px"
	 viewBox="0 0 175 185" style="enable-background:new 0 0 175 185;" xml:space="preserve">
<style type="text/css">
	.st0{fill:#616263;stroke:#000000;stroke-width:2;stroke-miterlimit:10;}
	.st1{fill:#ECECEC;stroke:#000000;stroke-width:2;stroke-miterlimit:10;}
</style>
<g>
	<path class="st0" d="M15.6,1h60.6c0,0-2.8,20.7,7.1,23.2h56.2v159.4L1,184V19c0-2.9,0.9-5.7,2.6-7.8l5.7-7C11,2.2,13.2,1,15.6,1z"
		/>
	<path class="st1" d="M163.9,58.3l-56.3,0c0,0-2.3,14.2-13.2,15.9l-58.3,0L2.1,184l137.6,0l33.8-113.3c0.7-2,0.5-3.9-0.8-5.3
		l-4.1-4.8C167.5,59.1,166.3,58.3,163.9,58.3z"/>
</g>
</svg>
