<?xml version="1.0" encoding="utf-8"?>
<!-- Generator: Adobe Illustrator 22.1.0, SVG Export Plug-In . SVG Version: 6.00 Build 0)  -->
<svg version="1.1" id="图层_1" xmlns="http://www.w3.org/2000/svg" xmlns:xlink="http://www.w3.org/1999/xlink" x="0px" y="0px"
	 viewBox="0 0 174 184" style="enable-background:new 0 0 174 184;" xml:space="preserve">
<style type="text/css">
	.st0{fill:none;}
	.st1{fill:#ECECEC;stroke:#000000;stroke-miterlimit:10;}
	.st2{fill:#ECECEC;stroke:#000000;stroke-width:2;stroke-miterlimit:10;}
	.st3{fill:#FFFFFF;stroke:#000000;stroke-miterlimit:10;}
	.st4{fill:#30DDE5;stroke:#000000;stroke-miterlimit:10;}
</style>
<path class="st0" d="M153.7,102.6H35.3c-5.2,0-9.5,4.3-9.5,9.5s4.3,9.5,9.5,9.5h118.4c5.2,0,9.5-4.3,9.5-9.5
	S158.9,102.6,153.7,102.6z"/>
<rect x="54.2" y="128" class="st1" width="80.7" height="9.7"/>
<rect x="54.2" y="144.4" class="st1" width="80.7" height="9.7"/>
<rect x="54.2" y="160.8" class="st1" width="80.7" height="9.7"/>
<path class="st0" d="M153.7,102.6H35.3c-5.2,0-9.5,4.3-9.5,9.5s4.3,9.5,9.5,9.5h118.4c5.2,0,9.5-4.3,9.5-9.5
	S158.9,102.6,153.7,102.6z"/>
<path class="st2" d="M159.9,39H14.1C6.9,39,1,45.2,1,52.9v64.7c0,7.7,5.9,13.9,13.1,13.9h145.8c7.2,0,13.1-6.2,13.1-13.9V52.9
	C173,45.2,167.1,39,159.9,39z M142.6,121.6H31.4c-4.9,0-9-4.3-9-9.5s4-9.5,9-9.5h111.3c4.9,0,9,4.3,9,9.5S147.6,121.6,142.6,121.6z
	 M158.6,61.3c-3.7,0-6.6-3.1-6.6-7c0-3.9,3-7,6.6-7c3.7,0,6.6,3.1,6.6,7C165.2,58.1,162.3,61.3,158.6,61.3z"/>
<path class="st3" d="M139.7,32.7H34.3V12.6c4.4-4.4,6.9-6.9,11.3-11.3h94V32.7z"/>
<rect x="34.3" y="111.3" class="st4" width="105.3" height="71.1"/>
<rect x="46.7" y="128" class="st1" width="80.7" height="9.7"/>
<rect x="46.7" y="144.4" class="st1" width="80.7" height="9.7"/>
<rect x="46.7" y="160.8" class="st1" width="80.7" height="9.7"/>
</svg>
