<?xml version="1.0" encoding="utf-8"?>
<!-- Generator: Adobe Illustrator 22.1.0, SVG Export Plug-In . SVG Version: 6.00 Build 0)  -->
<svg version="1.1" id="图层_1" xmlns="http://www.w3.org/2000/svg" xmlns:xlink="http://www.w3.org/1999/xlink" x="0px" y="0px"
	 viewBox="0 0 174 192" style="enable-background:new 0 0 174 192;" xml:space="preserve">
<style type="text/css">
	.st0{fill:#FCFCFC;stroke:#000000;stroke-width:2;stroke-miterlimit:10;}
	.st1{fill:#ECECEC;stroke:#000000;stroke-width:2;stroke-miterlimit:10;}
	.st2{fill:none;}
	.st3{fill:#ECECEC;stroke:#000000;stroke-miterlimit:10;}
	.st4{fill:#FFFFFF;stroke:#000000;stroke-miterlimit:10;}
	.st5{fill:#30DDE5;stroke:#000000;stroke-miterlimit:10;}
</style>
<g>
	<path class="st0" d="M145,193H1V6c2-2,3-3,5-5h116.5c8.8,8.8,13.7,13.7,22.5,22.5V193z"/>
	<path class="st1" d="M134.1,193H1V16.3c2-2,3-3,5-5h105.6c8.8,8.8,13.7,13.7,22.5,22.5V193z"/>
</g>
<path class="st2" d="M158.5,115.7H75.9c-3.7,0-6.6,3-6.6,6.6c0,3.6,3,6.6,6.6,6.6h82.6c3.7,0,6.6-3,6.6-6.6
	C165.2,118.7,162.2,115.7,158.5,115.7z"/>
<rect x="89.1" y="133.5" class="st3" width="56.3" height="6.8"/>
<rect x="89.1" y="144.9" class="st3" width="56.3" height="6.8"/>
<rect x="89.1" y="156.3" class="st3" width="56.3" height="6.8"/>
<path class="st2" d="M158.5,115.7H75.9c-3.7,0-6.6,3-6.6,6.6c0,3.6,3,6.6,6.6,6.6h82.6c3.7,0,6.6-3,6.6-6.6
	C165.2,118.7,162.2,115.7,158.5,115.7z"/>
<path class="st1" d="M163.1,74H52.9c-5.5,0-9.9,4.7-9.9,10.5v48.9c0,5.8,4.4,10.5,9.9,10.5h110.2c5.5,0,9.9-4.7,9.9-10.5V84.5
	C173,78.7,168.6,74,163.1,74z M150.1,136.4H65.9c-3.7,0-6.8-3.2-6.8-7.2c0-3.9,3-7.2,6.8-7.2h84.1c3.7,0,6.8,3.2,6.8,7.2
	C156.8,133.2,153.8,136.4,150.1,136.4z M162.1,90.9c-2.8,0-5-2.4-5-5.3c0-2.9,2.2-5.3,5-5.3s5,2.4,5,5.3
	C167.1,88.5,164.9,90.9,162.1,90.9z"/>
<path class="st4" d="M147.8,69.3H68.2V56.9c4.4-4.4,6.9-6.9,11.3-11.3h68.3V69.3z"/>
<rect x="68.2" y="128.7" class="st5" width="79.6" height="53.8"/>
<rect x="77.5" y="141.3" class="st3" width="61" height="7.3"/>
<rect x="77.5" y="153.7" class="st3" width="61" height="7.3"/>
<rect x="77.5" y="166.1" class="st3" width="61" height="7.3"/>
</svg>
