<?xml version="1.0" encoding="utf-8"?>
<!-- Generator: Adobe Illustrator 22.1.0, SVG Export Plug-In . SVG Version: 6.00 Build 0)  -->
<svg version="1.1" id="图层_1" xmlns="http://www.w3.org/2000/svg" xmlns:xlink="http://www.w3.org/1999/xlink" x="0px" y="0px"
	 viewBox="0 0 173 192" style="enable-background:new 0 0 173 192;" xml:space="preserve">
<style type="text/css">
	.st0{fill:#ECECEC;stroke:#000000;stroke-width:2;stroke-miterlimit:10;}
	.st1{stroke:#000000;stroke-width:2;stroke-miterlimit:10;}
	.st2{fill:#CECECE;stroke:#000000;stroke-width:2;stroke-miterlimit:10;}
	.st3{fill:#D31841;stroke:#FFFFFF;stroke-miterlimit:10;}
</style>
<g>
	<polygon class="st0" points="109,1 1,1 1,191 153,191 153,46.4 	"/>
	<path class="st1" d="M109.4,46.4H152c0.4,0,0.6-0.5,0.3-0.7l-42.6-44C109.4,1.5,109,1.7,109,2v44C109,46.2,109.2,46.4,109.4,46.4z"
		/>
</g>
<circle class="st2" cx="141.2" cy="158.4" r="32.6"/>
<polygon class="st3" points="154.9,134.9 164.7,144.7 151,158.4 164.7,172.1 154.9,181.8 141.2,168.2 127.5,181.8 117.8,172.1 
	131.4,158.4 117.8,144.7 127.5,134.9 141.2,148.6 "/>
</svg>
