<?xml version="1.0" encoding="utf-8"?>
<!-- Generator: Adobe Illustrator 22.1.0, SVG Export Plug-In . SVG Version: 6.00 Build 0)  -->
<svg version="1.1" id="图层_1" xmlns="http://www.w3.org/2000/svg" xmlns:xlink="http://www.w3.org/1999/xlink" x="0px" y="0px"
	 viewBox="0 0 176 186" style="enable-background:new 0 0 176 186;" xml:space="preserve">
<style type="text/css">
	.st0{fill:#FFFFFF;}
	.st1{fill:#ECECEC;stroke:#000000;stroke-width:2;stroke-miterlimit:10;}
	.st2{fill:#FCFCFC;stroke:#000000;stroke-width:2;stroke-miterlimit:10;}
	.st3{fill:#30DDE5;stroke:#000000;stroke-width:2;stroke-miterlimit:10;}
</style>
<polygon class="st0" points="146,182.4 141.7,177.6 146.3,173.1 150.6,178 "/>
<polygon class="st1" points="175,1.2 1,1.2 1,155.3 28.6,185 161.4,185 175,171.2 "/>
<path class="st2" d="M111.4,185v-61.8c-1.6-3-2.6-4.6-4.2-7.6H54c-1.6,3-2.6,4.6-4.2,7.6V185H111.4z"/>
<path class="st3" d="M36.6,1.5v57c6.7,5.5,10.5,8.7,17.2,14.2h64.5c6.7-5.5,10.5-8.7,17.2-14.2v-57H36.6z"/>
<rect x="62.6" y="135.9" class="st1" width="36.3" height="28.1"/>
</svg>
