<?xml version="1.0" encoding="utf-8"?>
<!-- Generator: Adobe Illustrator 22.1.0, SVG Export Plug-In . SVG Version: 6.00 Build 0)  -->
<svg version="1.1" id="图层_1" xmlns="http://www.w3.org/2000/svg" xmlns:xlink="http://www.w3.org/1999/xlink" x="0px" y="0px"
	 viewBox="0 0 176 186" style="enable-background:new 0 0 176 186;" xml:space="preserve">
<style type="text/css">
	.st0{fill:#ECECEC;stroke:#000000;stroke-width:2;stroke-miterlimit:10;}
	.st1{fill:#FCFCFC;stroke:#000000;stroke-width:2;stroke-miterlimit:10;}
	.st2{fill:#30DDE5;stroke:#000000;stroke-width:2;stroke-miterlimit:10;}
	.st3{fill:#616263;stroke:#000000;stroke-width:2;stroke-miterlimit:10;}
	.st4{fill:#DB9F35;stroke:#000000;stroke-width:2;stroke-miterlimit:10;}
	.st5{fill:none;stroke:#FFFFFF;stroke-width:2;stroke-miterlimit:10;}
</style>
<polygon class="st0" points="175,1.2 1,1.2 1,155.3 28.6,185 161.4,185 175,171.2 "/>
<path class="st1" d="M111.4,123.2c-1.6-3-2.6-4.6-4.2-7.6H54c-1.6,3-2.6,4.6-4.2,7.6V185h61.6V123.2z"/>
<path class="st2" d="M36.6,1.5v57c6.7,5.5,10.5,8.7,17.2,14.2h64.5c6.7-5.5,10.5-8.7,17.2-14.2v-57H36.6z"/>
<rect x="62.6" y="135.9" class="st0" width="36.3" height="28.1"/>
<rect x="95.5" y="54.5" transform="matrix(-0.7579 0.6523 -0.6523 -0.7579 256.3788 97.6551)" class="st3" width="29.2" height="83.8"/>
<path class="st2" d="M130.2,142.1l22.1-19l8.2,9.6c2.5,2.9,2.2,7.3-0.7,9.9l-11.5,9.9c-2.9,2.5-7.3,2.2-9.9-0.7L130.2,142.1z"/>
<polygon class="st4" points="63.1,41.6 68.2,68.7 89.1,50.7 "/>
<line class="st5" x1="101.3" y1="78.1" x2="127.7" y2="108.5"/>
</svg>
