<?xml version="1.0" encoding="utf-8"?>
<!-- Generator: Adobe Illustrator 22.1.0, SVG Export Plug-In . SVG Version: 6.00 Build 0)  -->
<svg version="1.1" id="图层_1" xmlns="http://www.w3.org/2000/svg" xmlns:xlink="http://www.w3.org/1999/xlink" x="0px" y="0px"
	 viewBox="0 0 174 184" style="enable-background:new 0 0 174 184;" xml:space="preserve">
<style type="text/css">
	.st0{fill:#ECECEC;stroke:#000000;stroke-width:2;stroke-miterlimit:10;}
	.st1{fill:#FCFCFC;stroke:#000000;stroke-width:2;stroke-miterlimit:10;}
	.st2{fill:#30DDE5;stroke:#000000;stroke-width:2;stroke-miterlimit:10;}
</style>
<g>
	<polygon class="st0" points="155.3,1.2 1,1.2 1,138 25.5,164.5 143.2,164.5 155.3,152.2 	"/>
	<path class="st1" d="M98.9,109.6c-1.5-2.6-2.3-4.1-3.7-6.8H48c-1.5,2.6-2.3,4.1-3.7,6.8v54.9h54.6V109.6z"/>
	<path class="st1" d="M32.5,1.5v50.7c5.9,4.9,9.3,7.7,15.2,12.6H105c5.9-4.9,9.3-7.7,15.2-12.6V1.5H32.5z"/>
	<rect x="55.6" y="120.8" class="st0" width="32.2" height="25"/>
</g>
<g>
	<polygon class="st0" points="164.1,10.1 9.9,10.1 9.9,146.9 34.3,173.3 152.1,173.3 164.1,161.1 	"/>
	<path class="st1" d="M107.8,118.5c-1.5-2.6-2.3-4.1-3.7-6.8H56.9c-1.5,2.6-2.3,4.1-3.7,6.8v54.9h54.6V118.5z"/>
	<path class="st1" d="M41.4,10.4V61c5.9,4.9,9.3,7.7,15.2,12.6h57.2c5.9-4.9,9.3-7.7,15.2-12.6V10.4H41.4z"/>
	<rect x="64.5" y="129.7" class="st0" width="32.2" height="25"/>
</g>
<polygon class="st0" points="173,20.7 18.7,20.7 18.7,157.6 43.2,184 161,184 173,171.8 "/>
<path class="st1" d="M116.6,129.1c-1.5-2.6-2.3-4.1-3.7-6.8H65.8c-1.5,2.6-2.3,4.1-3.7,6.8V184h54.6V129.1z"/>
<path class="st2" d="M50.3,21v50.7c5.9,4.9,9.3,7.7,15.2,12.6h57.2c5.9-4.9,9.3-7.7,15.2-12.6V21H50.3z"/>
<rect x="73.4" y="140.4" class="st0" width="32.2" height="25"/>
</svg>
