<?xml version="1.0" standalone="no"?><!DOCTYPE svg PUBLIC "-//W3C//DTD SVG 1.1//EN" "http://www.w3.org/Graphics/SVG/1.1/DTD/svg11.dtd"><svg t="1713954307819" class="icon" viewBox="0 0 1024 1024" version="1.1" xmlns="http://www.w3.org/2000/svg" p-id="8057" xmlns:xlink="http://www.w3.org/1999/xlink" width="200" height="200"><path d="M504.277333 128c230.058667 0 421.461333 165.546667 461.568 384a465.834667 465.834667 0 0 1-22.186666 79.914667 253.354667 253.354667 0 0 0-79.274667-31.573334c5.802667-15.616 10.666667-31.786667 14.378667-48.341333a384.213333 384.213333 0 0 0-749.013334 0 384.213333 384.213333 0 0 0 424.96 295.381333L554.666667 810.666667c0 28.330667 4.608 55.594667 13.098666 81.066666-20.736 2.816-41.941333 4.266667-63.488 4.266667C274.176 896 82.773333 730.453333 42.666667 512c40.106667-218.453333 231.509333-384 461.610666-384z m0 192a192 192 0 0 1 175.061334 270.933333 256.597333 256.597333 0 0 0-91.733334 94.037334A192 192 0 1 1 504.277333 320z m0 85.333333a106.666667 106.666667 0 1 0 0 213.333334 106.666667 106.666667 0 0 0 0-213.333334z" p-id="8058" fill="#30DDE5"></path><path d="M853.333333 768h128v85.333333h-128v128h-85.333333v-128h-128v-85.333333h128v-128h85.333333z" p-id="8059" fill="#30DDE5"></path></svg>