<?xml version="1.0" standalone="no"?><!DOCTYPE svg PUBLIC "-//W3C//DTD SVG 1.1//EN" "http://www.w3.org/Graphics/SVG/1.1/DTD/svg11.dtd"><svg t="1714030489541" class="icon" viewBox="0 0 1024 1024" version="1.1" xmlns="http://www.w3.org/2000/svg" p-id="6254" xmlns:xlink="http://www.w3.org/1999/xlink" width="200" height="200"><path d="M511.715556 284.444444c185.856 0 307.655111 168.789333 337.92 215.608889a23.779556 23.779556 0 0 1 0.682666 24.405334C823.751111 572.074667 715.320889 739.555556 511.715556 739.555556c-184.604444 0-306.062222-166.570667-337.237334-214.698667a23.722667 23.722667 0 0 1 0-25.713778C205.653333 451.015111 327.111111 284.444444 511.715556 284.444444z m0 45.568c-42.325333 0-84.48 10.24-125.155556 30.549334A404.024889 404.024889 0 0 0 288.995556 430.193778 540.273778 540.273778 0 0 0 221.184 508.586667a6.030222 6.030222 0 0 0 0 6.826666c14.506667 20.252444 37.432889 49.493333 67.811556 78.336a402.432 402.432 0 0 0 97.507555 69.802667 279.665778 279.665778 0 0 0 125.212445 30.492444c47.786667 0 93.525333-10.524444 135.850666-31.288888a360.163556 360.163556 0 0 0 95.971556-69.916445 447.032889 447.032889 0 0 0 61.269333-77.425778 3.015111 3.015111 0 0 0-0.056889-3.299555 547.043556 547.043556 0 0 0-70.314666-81.92 404.024889 404.024889 0 0 0-97.507556-69.632 279.665778 279.665778 0 0 0-125.155556-30.549334zM512 367.217778c77.596444 0 140.515556 64.853333 140.515556 144.782222S589.653333 656.782222 512 656.782222 371.484444 591.928889 371.484444 512 434.346667 367.217778 512 367.217778z m0.056889 38.570666c-1.365333 0-1.536 1.820444-0.341333 2.048a86.471111 86.471111 0 0 1 65.877333 84.878223c0 47.786667-37.888 86.869333-84.309333 86.869333-40.277333 0-73.955556-29.013333-82.375112-67.925333-0.227556-1.251556-1.991111-1.024-1.991111 0.227555 0 28.444444 10.752 55.182222 30.208 75.207111a101.091556 101.091556 0 0 0 145.749334 0c19.456-20.081778 30.151111-46.762667 30.151111-75.093333 0-28.103111-10.808889-55.182222-30.151111-75.093333a100.864 100.864 0 0 0-72.817778-31.118223z" p-id="6255"></path><path d="M284.444444 0v56.888889H56.888889v227.555555H0V56.888889a56.888889 56.888889 0 0 1 56.888889-56.888889h227.555555z m0 1024v-56.888889H57.400889v-227.555555h-56.888889v227.555555a56.888889 56.888889 0 0 0 56.888889 56.888889H284.444444z m455.111112-1024v56.888889h227.043555v227.555555h56.888889V56.888889a56.888889 56.888889 0 0 0-56.888889-56.888889H739.555556z m0 1024v-56.888889h227.555555v-227.555555h56.888889v227.555555a56.888889 56.888889 0 0 1-56.888889 56.888889h-227.555555z" p-id="6256"></path></svg>