<?xml version="1.0" standalone="no"?><!DOCTYPE svg PUBLIC "-//W3C//DTD SVG 1.1//EN" "http://www.w3.org/Graphics/SVG/1.1/DTD/svg11.dtd"><svg t="1713954542612" class="icon" viewBox="0 0 1024 1024" version="1.1" xmlns="http://www.w3.org/2000/svg" p-id="10283" xmlns:xlink="http://www.w3.org/1999/xlink" width="200" height="200"><path d="M339.781818 549.236364h-162.909091c-69.818182 0-130.327273 60.509091-130.327272 130.327272v162.909091c0 69.818182 60.509091 130.327273 130.327272 130.327273h162.909091c74.472727 0 130.327273-55.854545 130.327273-130.327273v-162.909091c0-69.818182-60.509091-130.327273-130.327273-130.327272z m55.854546 293.236363c0 32.581818-23.272727 55.854545-55.854546 55.854546h-162.909091c-32.581818 0-55.854545-23.272727-55.854545-55.854546v-162.909091c0-32.581818 23.272727-55.854545 55.854545-55.854545h162.909091c32.581818 0 55.854545 23.272727 55.854546 55.854545v162.909091zM339.781818 51.2h-162.909091c-69.818182 0-130.327273 60.509091-130.327272 130.327273v162.909091c0 69.818182 60.509091 130.327273 130.327272 130.327272h162.909091c74.472727 0 130.327273-55.854545 130.327273-130.327272v-162.909091c0-69.818182-60.509091-130.327273-130.327273-130.327273z m55.854546 293.236364c0 32.581818-23.272727 55.854545-55.854546 55.854545h-162.909091c-32.581818 0-55.854545-23.272727-55.854545-55.854545v-162.909091c0-32.581818 23.272727-55.854545 55.854545-55.854546h162.909091c32.581818 0 55.854545 23.272727 55.854546 55.854546v162.909091zM847.127273 549.236364h-162.909091c-69.818182 0-130.327273 60.509091-130.327273 130.327272v162.909091c0 69.818182 60.509091 130.327273 130.327273 130.327273h162.909091c69.818182 0 130.327273-60.509091 130.327272-130.327273v-162.909091c0-69.818182-60.509091-130.327273-130.327272-130.327272z m55.854545 293.236363c0 32.581818-23.272727 55.854545-55.854545 55.854546h-162.909091c-32.581818 0-55.854545-23.272727-55.854546-55.854546v-162.909091c0-32.581818 23.272727-55.854545 55.854546-55.854545h162.909091c32.581818 0 55.854545 23.272727 55.854545 55.854545v162.909091zM847.127273 51.2h-162.909091c-69.818182 0-130.327273 60.509091-130.327273 130.327273v162.909091c0 69.818182 60.509091 130.327273 130.327273 130.327272h162.909091c69.818182 0 130.327273-60.509091 130.327272-130.327272v-162.909091c0-69.818182-60.509091-130.327273-130.327272-130.327273z m55.854545 293.236364c0 32.581818-23.272727 55.854545-55.854545 55.854545h-162.909091c-32.581818 0-55.854545-23.272727-55.854546-55.854545v-162.909091c0-32.581818 23.272727-55.854545 55.854546-55.854546h162.909091c32.581818 0 55.854545 23.272727 55.854545 55.854546v162.909091z" p-id="10284" fill="#30DDE5"></path></svg>