<?xml version="1.0" encoding="utf-8" standalone="no"?>
<!DOCTYPE svg PUBLIC "-//W3C//DTD SVG 1.1//EN" "http://www.w3.org/Graphics/SVG/1.1/DTD/svg11-flat-20030114.dtd">
<!-- Created by SVGDeveloper 1.0 -->
<svg width="640" height="480" version="1.1" xmlns="http://www.w3.org/2000/svg" xmlns:xlink="http://www.w3.org/1999/xlink" fill="none">
<path d="M 404 87 C 400.5 86.16666 387.6666 82.83333 383 82 C 378.3333 81.16666 378.1666 82.16666 376 82 C 373.8333 81.83333 376.3333 77.33333 370 81 C 363.6666 84.66666 345.8333 93.5 338 104 C 330.1666 114.5 325.4999 136.1667 323 144 C 320.5 151.8333 323.1666 148.8333 323 151 C 322.8333 153.1667 322.1666 152.3333 322 157 C 321.8333 161.6667 322 170.1667 322 179 C 322 187.8333 322.6666 201.1667 322 210 C 321.3333 218.8333 318.6666 227.1667 318 232 C 317.3333 236.8333 323.4999 228.6667 318 239 C 312.5 249.3333 301.1666 279.5 285 294 C 268.8333 308.5 234.3333 322.1667 221 326 C 207.6666 329.8333 207.6666 318.5 205 317 " fill="none" fill-opacity="0" stroke="#000000" stroke-width="10" xmlns="http://www.w3.org/2000/svg" />
</svg>