<?xml version="1.0" encoding="utf-8"?>
<!-- Generator: Adobe Illustrator 22.1.0, SVG Export Plug-In . SVG Version: 6.00 Build 0)  -->
<svg version="1.1" id="图层_1" xmlns="http://www.w3.org/2000/svg" xmlns:xlink="http://www.w3.org/1999/xlink" x="0px" y="0px"
	 viewBox="0 0 212 212" style="enable-background:new 0 0 212 212;" xml:space="preserve">
<style type="text/css">
	.st0{fill:none;stroke:#000000;stroke-width:6;stroke-miterlimit:10;}
</style>
<path class="st0" d="M204.9,155.4c-1,13.5-12,24.4-25.5,25.3c-9.1,0.6-17.3-3.3-22.7-9.6c-1.5-1.8-4.4-1.3-5.1,1
	c-3.1,9.5-12,16.4-22.4,16.4c-8,0-15.1-4-19.4-10.1c-1.6-2.3-4.9-2.5-6.6-0.3c-4.3,5.6-11.1,9.2-18.6,9.2c-8.2,0-15.3-4.1-19.6-10.4
	c-1.7-2.5-5.1-3.1-7.5-1.3c-5.2,3.9-11.8,5.9-18.9,5.2c-12.8-1.2-23.2-11.5-24.6-24.2c-1.1-10.6,3.8-20.1,11.7-25.6
	c1.5-1,1.2-3.2-0.5-3.8c-8.9-3.4-15.2-12-15.2-22c0-9,5.1-16.9,12.6-20.8c2-1.1,2.2-3.9,0.4-5.2c-7.8-5.5-12.6-14.8-11.5-25.2
	C12.7,40.5,23.6,30,36.8,29.1c10.2-0.7,19.2,4.2,24.5,11.9c2.1,3.1,6.6,3.7,9.3,1.1c4.2-4.1,10.1-6.7,16.5-6.7
	c6.9,0,13.1,3,17.4,7.7c1.9,2.1,5.3,2.1,7.3,0c4.3-4.7,10.5-7.7,17.4-7.7c6.9,0,13.1,3,17.4,7.7c2.1,2.3,5.9,2.1,7.5-0.6
	c5.1-8.5,14.6-14.1,25.4-13.4c13.5,0.9,24.5,11.8,25.5,25.3c0.8,11.2-5.1,21-14,26c-2.2,1.2-2.3,4.2-0.4,5.7
	c5.7,4.3,9.4,11.1,9.4,18.8c0,8-4,15.1-10.2,19.4c-1.7,1.2-1.6,3.7,0.3,4.6C199.5,133.8,205.8,143.9,204.9,155.4z"/>
</svg>
