<?xml version="1.0" encoding="utf-8"?>
<!-- Generator: Adobe Illustrator 22.1.0, SVG Export Plug-In . SVG Version: 6.00 Build 0)  -->
<svg version="1.1" id="图层_1" xmlns="http://www.w3.org/2000/svg" xmlns:xlink="http://www.w3.org/1999/xlink" x="0px" y="0px"
	 viewBox="0 0 212 212" style="enable-background:new 0 0 212 212;" xml:space="preserve">
<style type="text/css">
	.st0{fill:none;stroke:#000000;stroke-width:6;stroke-miterlimit:10;}
</style>
<path class="st0" d="M191.3,131.7c0-0.7,0.8-0.9,2.5-2.3c7-5.6,11.2-14.2,11.2-23.2c0-16.3-13.2-29.6-29.6-29.6
	c-2.2,0-7.1,1.8-8.6,0.3c-1.7-1.7-1.2-7.6-2.2-10c-1.4-3.4-3.5-6.6-6.2-9.2c-5.3-5.3-12.5-8.2-20-8.2c-2.8,0-5.5,0.5-8.2,1.3
	c-2.7,0.9-5.9,3.7-8.5,4.2c-3.8,0.6-8-9.1-11.6-11.5c-4.7-3.3-10.4-5-16.1-5c-2.8,0-5.6,0.5-8.2,1.4c-1.9,0.6-6.7,4-8.4,3.6
	c-1.7-0.4-3.7-5-4.7-6.4c-1.7-2.5-3.5-4.9-6-6.6c-5-3.5-11-5.4-17.1-5.4c-16.3,0-29.6,13.2-29.6,29.6c0,4.6,1.2,9,3.5,13
	c1.3,2.3,3.3,4.2,4.9,6.2c2.2,2.8,3.6,3.8,0.5,5.9c-4.6,3-9.7,4.1-13.4,8.5C11.3,93.2,9,99.7,9,106.3c0,15.7,12.7,28.4,28.4,28.4
	c2,0,5.5-1.4,6.5,0.6c0.9,1.9-1.6,7.6-1.6,9.9c0,17.4,14.1,31.4,31.4,31.4c4.5,0,8.8-1.1,12.8-3.3c3.6-1.9,7.7-6.7,11.5-7.5
	c0.3-0.1,3.2,7.5,3.5,8.1c1.6,3.1,3.5,5.9,6.2,8.1c5.1,4.4,11.7,6.8,18.4,6.8c5.2,0,10.4-1.5,14.9-4.2c2.6-1.6,4.4-3.8,6.3-6.2
	c1.9-2.3,3-5,5.7-4.3c2.5,0.6,5.3,3.5,8,4.4c3.1,1.1,6.3,1.6,9.5,1.6c15.7,0,28.4-12.7,28.4-28.4c0-4.2-1.1-8.6-3-12.4
	c-1-2-2.6-3.7-3.7-5.7C191.6,132.7,191.3,132.1,191.3,131.7z M54.5,83.7"/>
</svg>
