<?xml version="1.0" encoding="utf-8"?>
<!-- Generator: Adobe Illustrator 22.1.0, SVG Export Plug-In . SVG Version: 6.00 Build 0)  -->
<svg version="1.1" id="图层_1" xmlns="http://www.w3.org/2000/svg" xmlns:xlink="http://www.w3.org/1999/xlink" x="0px" y="0px"
	 viewBox="0 0 212 212" style="enable-background:new 0 0 212 212;" xml:space="preserve">
<style type="text/css">
	.st0{fill:none;stroke:#000000;stroke-width:6;stroke-miterlimit:10;}
</style>
<path class="st0" d="M185.7,122.2c0-2.8-0.5-5.5-1.4-8c-0.7-1.8-0.3-3.9,1.1-5.3c4.8-4.8,7.7-11.3,7.7-18.6
	c0-12.9-9.3-23.6-21.5-25.8c-2.3-0.4-4.2-2.1-4.7-4.4C164.7,49.8,155.6,42,144.7,42c-2.8,0-5.5,0.5-8,1.5c-2.4,0.9-5-0.6-5.5-3.1
	C128.4,28.7,118,20,105.5,20c-6.8,0-13.5,2.7-18.4,7.5c-3.5,3.4-5.4,7.7-6.6,12.4c-0.5,1.8-0.6,5.6-2.2,6.1
	c-1.6,0.5-6.2-1.6-8.2-1.6c-5.2,0-10.2,1.8-14.3,5.1c-2.4,1.9-3.8,4.4-5.2,7.1c-2,3.7-2,5-6.2,5C29.8,61.6,18,73.4,18,87.9
	c0,5.7,1.9,11.3,5.3,15.9c2.3,3,3.9,3,2.8,6.6c-1,3.2-2,5.9-2,9.4c0,7.1,3.3,12.5,8.7,16.8c1.3,1.1,2.7,2,4.1,3
	c2.2,1.6,2.5,1.1,1.5,3.3c-1.6,3.3-6,5.5-7.8,9c-2.3,4.4-3.2,9.4-2.8,14.3C29,178.6,39,188.7,51.4,190c5.4,0.5,11-0.6,15.7-3.4
	c2.4-1.4,4.3-3.4,6-5.5c1-1.3,3.7-6.3,5.5-6.3c3.2,0,8.4,10.4,11,12.4c4.6,3.6,10.2,5.3,16,5.3c5.8,0,11.2-2.2,15.8-5.8
	c3.5-2.7,5.8-9.5,10-11.1c3.7-1.4,7.9,7.9,11.4,10.2c5,3.3,11,4.7,17,4.1c12.6-1.3,22.7-11.7,23.6-24.3c0.5-7.6-2.2-14.5-6.9-19.6
	c-1.6-1.8-1.3-4.5,0.6-6C182.2,135.9,185.7,129.5,185.7,122.2z M89.5,63"/>
</svg>
