<?xml version="1.0" encoding="utf-8"?>
<!-- Generator: Adobe Illustrator 22.1.0, SVG Export Plug-In . SVG Version: 6.00 Build 0)  -->
<svg version="1.1" id="图层_1" xmlns="http://www.w3.org/2000/svg" xmlns:xlink="http://www.w3.org/1999/xlink" x="0px" y="0px"
	 viewBox="0 0 197 198" style="enable-background:new 0 0 197 198;" xml:space="preserve">
<style type="text/css">
	.st0{fill:none;stroke:#000000;stroke-width:6;stroke-miterlimit:10;}
	.st1{fill:#30DDE5;stroke:#000000;stroke-width:6;stroke-miterlimit:10;}
</style>
<g>
	<path class="st0" d="M2.4,34.8c-1.6,23.6-0.5,65.8,31.1,100.4c15.3,16.8,42,16.2,56.4-1.3c41.3-50.3,46.1-46.3,59.6-44.3
		c29.4,4.3,33.3,53,14.8,81.6c-7.9,12.2-26.5,9.7-30.7-4.2C110.5,91.3,102.3,24.5,22.6,18.9C12.3,18.2,3.1,24.9,2.4,34.8z"/>
	<circle class="st1" cx="141.8" cy="176.9" r="18.6"/>
	<circle class="st1" cx="139.7" cy="89.5" r="18.6"/>
	<circle class="st1" cx="176" cy="129.7" r="18.6"/>
	<circle class="st1" cx="40.1" cy="21.7" r="18.6"/>
	<circle class="st1" cx="39" cy="139" r="18.6"/>
</g>
</svg>
