<?xml version="1.0" encoding="utf-8"?>
<!-- Generator: Adobe Illustrator 22.1.0, SVG Export Plug-In . SVG Version: 6.00 Build 0)  -->
<svg version="1.1" id="图层_1" xmlns="http://www.w3.org/2000/svg" xmlns:xlink="http://www.w3.org/1999/xlink" x="0px" y="0px"
	 viewBox="0 0 252 149" style="enable-background:new 0 0 252 149;" xml:space="preserve">
<style type="text/css">
	.st0{stroke:#000000;stroke-width:6;stroke-miterlimit:10;}
	.st1{font-family:'WenQuanYiZenHei';}
	.st2{font-size:99.9425px;}
	.st3{fill:none;stroke:#000000;stroke-width:6;stroke-miterlimit:10;}
	.st4{fill:#30DDE5;stroke:#000000;stroke-width:6;stroke-miterlimit:10;}
</style>
<g>
	<polygon class="st0" points="245,37.2 221.5,62.8 217.9,51.2 187.1,60.8 184,50.9 214.8,41.3 211.2,29.7 	"/>
	<text transform="matrix(1 0 0 1 107.3984 71.1768)" class="st1 st2">?</text>
	<g>
		<line class="st3" x1="94.6" y1="92.4" x2="144.3" y2="132.6"/>
		<g>
			<line class="st3" x1="16.6" y1="132.2" x2="90.4" y2="90.6"/>
			<circle class="st4" cx="90.4" cy="90.8" r="12.5"/>
			<circle class="st4" cx="16.6" cy="130.8" r="12.5"/>
		</g>
		<g>
			<line class="st3" x1="150.2" y1="133.9" x2="224" y2="92.3"/>
			<circle class="st4" cx="223.9" cy="92.5" r="12.5"/>
			<circle class="st4" cx="150.2" cy="132.4" r="12.5"/>
		</g>
	</g>
	
		<rect x="149.4" y="47.3" transform="matrix(0.9864 0.1643 -0.1643 0.9864 10.9367 -26.9122)" class="st0" width="37.5" height="10.8"/>
	<polygon class="st0" points="22.2,55.4 43.6,28.1 48.1,39.3 78,27.2 81.9,36.8 52,48.9 56.6,60.2 	"/>
	
		<rect x="77.3" y="32.8" transform="matrix(-0.9525 -0.3045 0.3045 -0.9525 175.8527 103.9162)" class="st0" width="37.5" height="10.8"/>
</g>
</svg>
