<?xml version="1.0" encoding="utf-8"?>
<!-- Generator: Adobe Illustrator 22.1.0, SVG Export Plug-In . SVG Version: 6.00 Build 0)  -->
<svg version="1.1" id="图层_1" xmlns="http://www.w3.org/2000/svg" xmlns:xlink="http://www.w3.org/1999/xlink" x="0px" y="0px"
	 viewBox="0 0 182.8 198.7" style="enable-background:new 0 0 182.8 198.7;" xml:space="preserve">
<style type="text/css">
	.st0{fill:#ECECEC;stroke:#000000;stroke-width:2;stroke-miterlimit:10;}
	.st1{stroke:#000000;stroke-width:2;stroke-miterlimit:10;}
	.st2{fill:#30DDE5;stroke:#000000;stroke-width:2;stroke-miterlimit:10;}
</style>
<polygon class="st0" points="128.7,3 3.3,3 3.3,194.3 179.8,194.3 179.8,48.8 "/>
<path class="st1" d="M129,48.4H179c0.3,0,0.4-0.3,0.2-0.5L129.2,3.1c-0.2-0.2-0.5,0-0.5,0.2v44.8C128.7,48.3,128.8,48.4,129,48.4z"
	/>
<polygon class="st0" points="108.8,193.6 4.5,194.3 50.8,111.5 63.3,129.2 "/>
<polygon class="st0" points="178.7,193.3 46.5,193.3 116.4,61.6 "/>
<polygon class="st2" points="103.4,48.8 103.4,64.7 68,64.7 68,96.4 50.2,96.4 50.2,64.7 14.8,64.7 14.8,48.8 50.2,48.8 50.2,17 
	68,17 68,48.8 "/>
</svg>
