<?xml version="1.0" standalone="no"?><!DOCTYPE svg PUBLIC "-//W3C//DTD SVG 1.1//EN" "http://www.w3.org/Graphics/SVG/1.1/DTD/svg11.dtd"><svg t="1714014850835" class="icon" viewBox="0 0 1024 1024" version="1.1" xmlns="http://www.w3.org/2000/svg" p-id="6452" xmlns:xlink="http://www.w3.org/1999/xlink" width="200" height="200"><path d="M148.544 836.672l208.96-218.112 46.208 44.288-208.96 218.112zM638.08 339.84l196.224-204.544 46.208 44.288-196.288 204.608z" fill="#606060" p-id="6453"></path><path d="M97.92 799.36h128v128h-128z" fill="#FFFFFF" p-id="6454"></path><path d="M256 960H64v-192h192z m-128-64h64v-64H128z" fill="#606060" p-id="6455"></path><path d="M792.32 103.04h128v128h-128z" fill="#FFFFFF" p-id="6456"></path><path d="M952.32 263.04h-192v-192h192z m-128-64h64v-64h-64z" fill="#606060" p-id="6457"></path><path d="M865.92 632.32l-512-474.24" fill="#FFFFFF" p-id="6458"></path><path d="M844.16 656l-46.72-43.52 43.52-47.36 46.72 43.52z m-94.08-87.04L704 525.44l43.52-47.36 46.72 43.52z m-93.44-87.04l-47.36-43.52 43.52-47.36 47.36 43.52zM562.56 394.88l-46.72-43.52 43.52-46.72 46.72 42.88zM468.48 307.84l-46.72-43.52 43.52-46.72 46.72 43.52zM374.4 220.8l-42.24-39.04 43.52-47.36 42.24 39.68z" fill="#9B9B9B" p-id="6459"></path><path d="M556.16 340.48h128v128h-128z" fill="#FFFFFF" p-id="6460"></path><path d="M716.16 500.48h-192v-192h192z m-128-64h64v-64h-64z" fill="#68AA67" p-id="6461"></path><path d="M618.88 876.16l-512-473.6" fill="#FFFFFF" p-id="6462"></path><path d="M597.12 899.84l-47.36-43.52 43.52-46.72 47.36 43.52zM503.04 812.8l-46.72-44.8 43.52-46.72 46.72 43.52z m-94.08-87.04l-46.72-43.52 43.52-46.72 46.72 43.52zM315.52 640l-47.36-44.8 43.52-46.72 46.72 43.52zM221.44 551.68L174.08 512l43.52-47.36 47.36 43.52zM128 465.28l-42.24-39.68 42.24-46.72 42.24 39.04z" fill="#9B9B9B" p-id="6463"></path><path d="M309.12 584.96h128v128h-128z" fill="#FFFFFF" p-id="6464"></path><path d="M469.12 744.96h-192v-192h192z m-128-64h64v-64h-64z" fill="#68AA67" p-id="6465"></path></svg>