<?xml version="1.0" encoding="utf-8"?>
<!-- Generator: Adobe Illustrator 22.1.0, SVG Export Plug-In . SVG Version: 6.00 Build 0)  -->
<svg version="1.1" id="图层_1" xmlns="http://www.w3.org/2000/svg" xmlns:xlink="http://www.w3.org/1999/xlink" x="0px" y="0px"
	 viewBox="0 0 167 233" style="enable-background:new 0 0 167 233;" xml:space="preserve">
<style type="text/css">
	.st0{fill:#30DDE5;}
	.st1{fill:none;stroke:#000000;stroke-width:6;stroke-miterlimit:10;}
</style>
<g>
	<g>
		<path class="st0" d="M10.8,182.3c-2.1,0-4.1-0.9-5.5-2.6c-1.4-1.6-2-3.7-1.6-5.8l11.1-71.3L94,4l65.7,52.9L80,156l-66.5,25.8
			C12.6,182.1,11.7,182.3,10.8,182.3z"/>
		<path d="M94.5,8.2l61.1,49.1l-77.4,96.2L12.4,179c-0.5,0.2-1.1,0.3-1.6,0.3c-1.2,0-2.4-0.6-3.3-1.5c-0.6-0.7-1.2-1.8-1-3.4
			l10.9-70.5L94.5,8.2 M93.6-0.2l-82.1,102l0.2,0.2L0.6,173.4c-1,6.5,4.1,11.9,10.2,11.9c1.2,0,2.5-0.2,3.7-0.7l67.7-26.2l-0.2-0.1
			L164,56.4L93.6-0.2L93.6-0.2z"/>
	</g>
	<path class="st1" d="M8,180.8c0,0-17.7,23.9,15.9,33.6c33.6,9.7,115.9-52.2,121.2,18.6"/>
</g>
</svg>
