<?xml version="1.0" encoding="utf-8"?>
<!-- Generator: Adobe Illustrator 22.1.0, SVG Export Plug-In . SVG Version: 6.00 Build 0)  -->
<svg version="1.1" id="图层_1" xmlns="http://www.w3.org/2000/svg" xmlns:xlink="http://www.w3.org/1999/xlink" x="0px" y="0px"
	 viewBox="0 0 202 227" style="enable-background:new 0 0 202 227;" xml:space="preserve">
<style type="text/css">
	.st0{fill:#30DDE5;stroke:#000000;stroke-width:6;stroke-miterlimit:10;}
	.st1{stroke:#000000;stroke-width:6;stroke-miterlimit:10;}
</style>
<g>
	<g>
		<g>
			<path class="st0" d="M197,202.4H83V39c12.5-12.5,19.5-19.5,32-32h50c12.5,12.5,19.5,19.5,32,32V202.4z"/>
			<path class="st0" d="M191,202.4H77V39c12.5-12.5,19.5-19.5,32-32h50c12.5,12.5,19.5,19.5,32,32V202.4z"/>
			<path class="st0" d="M192,202.4H78V39c12.5-12.5,19.5-19.5,32-32h50c12.5,12.5,19.5,19.5,32,32V202.4z"/>
			<path class="st0" d="M186,202.4H72V39c12.5-12.5,19.5-19.5,32-32h50c12.5,12.5,19.5,19.5,32,32V202.4z"/>
		</g>
		<g>
			<path class="st0" d="M129,221H15V57.6c12.5-12.5,19.5-19.5,32-32h50c12.5,12.5,19.5,19.5,32,32V221z"/>
			<path class="st0" d="M123,221H9V57.6c12.5-12.5,19.5-19.5,32-32h50c12.5,12.5,19.5,19.5,32,32V221z"/>
			<path class="st0" d="M124,221H10V57.6c12.5-12.5,19.5-19.5,32-32h50c12.5,12.5,19.5,19.5,32,32V221z"/>
			<path class="st0" d="M118,221H4V57.6c12.5-12.5,19.5-19.5,32-32h50c12.5,12.5,19.5,19.5,32,32V221z"/>
		</g>
	</g>
	<polygon class="st1" points="101.2,178.2 101.5,156.2 41,156.2 41,127.1 101.9,127.1 102.1,105.1 165,142.4 	"/>
</g>
</svg>
