<?xml version="1.0" standalone="no"?><!DOCTYPE svg PUBLIC "-//W3C//DTD SVG 1.1//EN" "http://www.w3.org/Graphics/SVG/1.1/DTD/svg11.dtd"><svg t="1714013695503" class="icon" viewBox="0 0 1109 1024" version="1.1" xmlns="http://www.w3.org/2000/svg" p-id="5102" xmlns:xlink="http://www.w3.org/1999/xlink" width="216.6015625" height="200"><path d="M936.618667 384v-30.122667h-178.773334v135.552h63.488l-49.365333 45.141334h-14.122667v12.928l-44.714666 40.874666v-53.76h-178.773334v135.509334h89.429334l-7.082667 6.485333c-32.426667 1.706667-63.872 13.397333-94.293333 34.986667a118.613333 118.613333 0 0 0-32.768 36.736v-33.024h-178.773334v135.509333h145.536c-1.28 7.253333-2.517333 14.378667-3.669333 21.461333a129.066667 129.066667 0 0 1-6.442667 23.722667H101.376C68.949333 896 42.666667 871.424 42.666667 841.130667V182.869333C42.666667 152.576 68.992 128 101.376 128h824.405333a55.04 55.04 0 0 1 55.210667 54.784l0.256 160.384-44.629333 40.789333z m0 218.453333L981.333333 552.533333v288.597334c0 30.293333-26.282667 54.869333-58.709333 54.869333h-210.773333a209.792 209.792 0 0 0 35.498666-81.92l10.496-11.690667v48.426667h178.773334v-135.509333h-100.864l40.405333-45.226667h60.458667v-67.584zM310.869333 308.736h178.773334V173.226667h-178.773334v135.509333z m223.488 0h178.773334V173.226667h-178.773334v135.509333z m-446.976 0h178.773334V173.226667h-178.773334v135.509333z m670.464 0h178.773334V173.226667h-178.773334v135.509333zM310.869333 489.429333h178.773334V353.877333h-178.773334v135.552z m223.488 0h178.773334V353.877333h-178.773334v135.552z m-446.976 0h178.773334V353.877333h-178.773334v135.552z m223.488 180.693334h178.773334v-135.552h-178.773334v135.552z m-223.488 0h178.773334v-135.552h-178.773334v135.552z m0 180.693333h178.773334v-135.509333h-178.773334v135.509333z" fill="#30DDE5" p-id="5103"></path><path d="M709.333333 804.266667a11.52 11.52 0 0 1-7.466666-3.2c-4.266667-4.266667-4.266667-10.666667-1.066667-14.933334l354.133333-389.333333c7.466667-7.466667 6.4-20.266667-1.066666-27.733333a21.12 21.12 0 0 0-27.733334-1.066667L636.8 721.066667c-4.266667 4.266667-10.666667 3.2-14.933333-1.066667-4.266667-4.266667-3.2-10.666667 1.066666-14.933333l388.266667-352c16-14.933333 41.6-13.866667 57.6 1.066666a41.557333 41.557333 0 0 1 1.066667 57.6L716.8 801.066667c-2.133333 2.133333-4.266667 3.2-7.466667 3.2z" fill="#30DDE5" p-id="5104"></path><path d="M609.066667 728.533333c21.333333 0 43.733333 8.533333 60.8 24.533334 33.066667 33.066667 33.066667 87.466667 0 120.533333-48 48-138.666667 83.2-220.8 100.266667 87.466667-87.466667 42.666667-163.2 100.266666-220.8a83.882667 83.882667 0 0 1 59.733334-24.533334z m0-21.333333c-28.8 0-55.466667 10.666667-75.733334 30.933333-30.933333 30.933333-37.333333 66.133333-42.666666 99.2-7.466667 39.466667-13.866667 78.933333-57.6 122.666667-6.4 6.4-8.533333 17.066667-3.2 25.6 4.266667 7.466667 10.666667 10.666667 19.2 10.666667h4.266666c100.266667-21.333333 186.666667-60.8 231.466667-106.666667a106.24 106.24 0 0 0 0-150.4 102.4 102.4 0 0 0-75.733333-32z" fill="#30DDE5" p-id="5105"></path><path d="M454.4 978.133333c-3.2 0-6.4-2.133333-8.533333-4.266666-3.2-5.333333-2.133333-11.733333 3.2-14.933334 1.066667 0 77.866667-53.333333 106.666666-132.266666 2.133333-5.333333 8.533333-8.533333 13.866667-6.4 5.333333 2.133333 8.533333 8.533333 6.4 13.866666-32 85.333333-112 140.8-115.2 142.933334-2.133333 0-4.266667 1.066667-6.4 1.066666z m299.733333-226.133333c-5.333333 0-9.6-4.266667-10.666666-9.6 0 0-3.2-18.133333-23.466667-38.4-21.333333-21.333333-40.533333-24.533333-40.533333-24.533333-5.333333-1.066667-9.6-6.4-8.533334-11.733334 1.066667-5.333333 6.4-9.6 11.733334-8.533333 1.066667 0 26.666667 4.266667 53.333333 30.933333 25.6 25.6 29.866667 50.133333 29.866667 51.2 1.066667 5.333333-3.2 11.733333-8.533334 11.733334-2.133333-1.066667-3.2-1.066667-3.2-1.066667z" fill="#30DDE5" p-id="5106"></path></svg>