<?xml version="1.0" encoding="UTF-8"?>
<svg width="24px" height="24px" viewBox="0 0 24 24" version="1.1" xmlns="http://www.w3.org/2000/svg" xmlns:xlink="http://www.w3.org/1999/xlink">
    <title>编组 166备份 6</title>
    <g id="页面-1" stroke="none" stroke-width="1" fill="none" fill-rule="evenodd">
        <g id="浅色2" transform="translate(-551.000000, -239.000000)">
            <g id="编组-18" transform="translate(0.000000, 221.000000)">
                <g id="编组-166备份-6" transform="translate(551.000000, 18.000000)">
                    <rect id="矩形" fill="#E6E6E6" opacity="0" x="0" y="0" width="24" height="24"></rect>
                    <g id="编组-165" transform="translate(4.000000, 4.000000)">
                        <path d="M7.1875,-0.6875 L-0.6875,-0.6875 L-0.6875,7.1875 L7.1875,7.1875 L7.1875,-0.6875 Z M5.812,0.687 L5.812,5.812 L0.687,5.812 L0.687,0.687 L5.812,0.687 Z" id="矩形" fill="#6A6A6A" fill-rule="nonzero"></path>
                        <path d="M7.1875,8.8125 L-0.6875,8.8125 L-0.6875,16.6875 L7.1875,16.6875 L7.1875,8.8125 Z M5.812,10.187 L5.812,15.312 L0.687,15.312 L0.687,10.187 L5.812,10.187 Z" id="矩形备份-97" fill="#6A6A6A" fill-rule="nonzero"></path>
                        <g id="铅笔_pencil" transform="translate(9.000000, 9.000000)" stroke-linecap="round">
                            <line x1="4.45709144" y1="1.06550228" x2="5.93077604" y2="2.53922159" id="路径" stroke="#FFFFFF" stroke-width="0.552631724" stroke-linejoin="round"></line>
                            <polygon id="路径" stroke="#007AFF" stroke-width="0.552631724" fill="#007AFF" points="0.368424834 5.15784626 4.45707117 1.06568465 5.93077419 2.53922343 1.84210391 6.63156925 0 7"></polygon>
                            <polygon id="路径" stroke="#007AFF" points="0.368424834 5.15784626 5.52629698 0 7 1.47353878 1.84210391 6.63156925 7.95807864e-13 7"></polygon>
                        </g>
                        <path d="M16.6875,-0.6875 L8.8125,-0.6875 L8.8125,7.1875 L16.6875,7.1875 L16.6875,-0.6875 Z M15.312,0.687 L15.312,5.812 L10.187,5.812 L10.187,0.687 L15.312,0.687 Z" id="矩形备份-96" fill="#6A6A6A" fill-rule="nonzero"></path>
                    </g>
                </g>
            </g>
        </g>
    </g>
</svg>