<?xml version="1.0" encoding="UTF-8"?>
<svg width="24px" height="24px" viewBox="0 0 24 24" version="1.1" xmlns="http://www.w3.org/2000/svg" xmlns:xlink="http://www.w3.org/1999/xlink">
    <title>编组 168</title>
    <g id="页面-1" stroke="none" stroke-width="1" fill="none" fill-rule="evenodd">
        <g id="浅色2" transform="translate(-1883.000000, -90.000000)">
            <g id="编组-168" transform="translate(1883.000000, 90.000000)">
                <rect id="矩形备份-94" fill="#E6E6E6" opacity="0" x="0" y="0" width="24" height="24"></rect>
                <path d="M18.75,3.3125 C17.1276635,3.3125 15.8125,4.62766355 15.8125,6.25 C15.8125,7.87233645 17.1276635,9.1875 18.75,9.1875 C20.3723365,9.1875 21.6875,7.87233645 21.6875,6.25 C21.6875,4.62766355 20.3723365,3.3125 18.75,3.3125 Z M18.75,4.6875 C19.6129449,4.6875 20.3125,5.38705508 20.3125,6.25 C20.3125,7.11294492 19.6129449,7.8125 18.75,7.8125 C17.8870551,7.8125 17.1875,7.11294492 17.1875,6.25 C17.1875,5.38705508 17.8870551,4.6875 18.75,4.6875 Z" id="椭圆形" fill="#007AFF" fill-rule="nonzero"></path>
                <path d="M12,8.8125 C10.3776635,8.8125 9.0625,10.1276635 9.0625,11.75 C9.0625,13.3723365 10.3776635,14.6875 12,14.6875 C13.6223365,14.6875 14.9375,13.3723365 14.9375,11.75 C14.9375,10.1276635 13.6223365,8.8125 12,8.8125 Z M12,10.1875 C12.8629449,10.1875 13.5625,10.8870551 13.5625,11.75 C13.5625,12.6129449 12.8629449,13.3125 12,13.3125 C11.1370551,13.3125 10.4375,12.6129449 10.4375,11.75 C10.4375,10.8870551 11.1370551,10.1875 12,10.1875 Z" id="椭圆形备份-29" fill="#007AFF" fill-rule="nonzero"></path>
                <path d="M5.25,11.3125 C3.62766355,11.3125 2.3125,12.6276635 2.3125,14.25 C2.3125,15.8723365 3.62766355,17.1875 5.25,17.1875 C6.87233645,17.1875 8.1875,15.8723365 8.1875,14.25 C8.1875,12.6276635 6.87233645,11.3125 5.25,11.3125 Z M5.25,12.6875 C6.11294492,12.6875 6.8125,13.3870551 6.8125,14.25 C6.8125,15.1129449 6.11294492,15.8125 5.25,15.8125 C4.38705508,15.8125 3.6875,15.1129449 3.6875,14.25 C3.6875,13.3870551 4.38705508,12.6875 5.25,12.6875 Z" id="椭圆形备份-30" fill="#6A6A6A" fill-rule="nonzero"></path>
                <path d="M21.5438156,11.3182205 L21.4561844,12.6904252 C20.1936077,12.609795 19.0770524,13.1713509 18.0587709,14.4355798 C14.2833219,19.1229198 8.13339224,22.2957216 2.2201573,19.6605959 L2.7798427,18.4046591 C7.9664098,20.7159585 13.5583134,17.8310471 16.9879325,13.5730659 C18.2107098,12.054949 19.6608136,11.2826329 21.2969976,11.3083683 L21.5438156,11.3182205 Z" id="路径-25" fill="#6A6A6A" fill-rule="nonzero"></path>
            </g>
        </g>
    </g>
</svg>