<?xml version="1.0" encoding="UTF-8"?>
<svg width="24px" height="24px" viewBox="0 0 24 24" version="1.1" xmlns="http://www.w3.org/2000/svg" xmlns:xlink="http://www.w3.org/1999/xlink">
    <title>编组 167备份 2</title>
    <g id="页面-1" stroke="none" stroke-width="1" fill="none" fill-rule="evenodd">
        <g id="浅色2" transform="translate(-1849.000000, -124.000000)">
            <g id="编组-167备份-2" transform="translate(1849.000000, 124.000000)">
                <rect id="矩形备份-88" opacity="0" x="0" y="0" width="24" height="24"></rect>
                <g id="椭圆形-2" transform="translate(3.000000, 3.000000)" fill-rule="nonzero">
                    <path d="M8.91922863,-0.6875 C7.29689218,-0.6875 5.98172863,0.627663547 5.98172863,2.25 C5.98172863,3.87233645 7.29689218,5.1875 8.91922863,5.1875 C10.5415651,5.1875 11.8567286,3.87233645 11.8567286,2.25 C11.8567286,0.627663547 10.5415651,-0.6875 8.91922863,-0.6875 Z M8.91922863,0.6875 C9.78217356,0.6875 10.4817286,1.38705508 10.4817286,2.25 C10.4817286,3.11294492 9.78217356,3.8125 8.91922863,3.8125 C8.05628371,3.8125 7.35672863,3.11294492 7.35672863,2.25 C7.35672863,1.38705508 8.05628371,0.6875 8.91922863,0.6875 Z" id="椭圆形" fill="#007AFF"></path>
                    <path d="M14.7649001,2.6875 C13.1425637,2.6875 11.8274001,4.00266355 11.8274001,5.625 C11.8274001,7.24733645 13.1425637,8.5625 14.7649001,8.5625 C16.3872366,8.5625 17.7024001,7.24733645 17.7024001,5.625 C17.7024001,4.00266355 16.3872366,2.6875 14.7649001,2.6875 Z M14.7649001,4.0625 C15.627845,4.0625 16.3274001,4.76205508 16.3274001,5.625 C16.3274001,6.48794492 15.627845,7.1875 14.7649001,7.1875 C13.9019552,7.1875 13.2024001,6.48794492 13.2024001,5.625 C13.2024001,4.76205508 13.9019552,4.0625 14.7649001,4.0625 Z" id="椭圆形" fill="#007AFF" transform="translate(14.764900, 5.625000) rotate(60.000000) translate(-14.764900, -5.625000) "></path>
                    <path d="M14.7649001,9.4375 C13.1425637,9.4375 11.8274001,10.7526635 11.8274001,12.375 C11.8274001,13.9973365 13.1425637,15.3125 14.7649001,15.3125 C16.3872366,15.3125 17.7024001,13.9973365 17.7024001,12.375 C17.7024001,10.7526635 16.3872366,9.4375 14.7649001,9.4375 Z M14.7649001,10.8125 C15.627845,10.8125 16.3274001,11.5120551 16.3274001,12.375 C16.3274001,13.2379449 15.627845,13.9375 14.7649001,13.9375 C13.9019552,13.9375 13.2024001,13.2379449 13.2024001,12.375 C13.2024001,11.5120551 13.9019552,10.8125 14.7649001,10.8125 Z" id="椭圆形" fill="#007AFF" transform="translate(14.764900, 12.375000) rotate(120.000000) translate(-14.764900, -12.375000) "></path>
                    <path d="M8.91922863,12.8125 C7.29689218,12.8125 5.98172863,14.1276635 5.98172863,15.75 C5.98172863,17.3723365 7.29689218,18.6875 8.91922863,18.6875 C10.5415651,18.6875 11.8567286,17.3723365 11.8567286,15.75 C11.8567286,14.1276635 10.5415651,12.8125 8.91922863,12.8125 Z M8.91922863,14.1875 C9.78217356,14.1875 10.4817286,14.8870551 10.4817286,15.75 C10.4817286,16.6129449 9.78217356,17.3125 8.91922863,17.3125 C8.05628371,17.3125 7.35672863,16.6129449 7.35672863,15.75 C7.35672863,14.8870551 8.05628371,14.1875 8.91922863,14.1875 Z" id="椭圆形" fill="#007AFF" transform="translate(8.919229, 15.750000) rotate(180.000000) translate(-8.919229, -15.750000) "></path>
                    <path d="M3.07355716,9.4375 C1.45122071,9.4375 0.136057159,10.7526635 0.136057159,12.375 C0.136057159,13.9973365 1.45122071,15.3125 3.07355716,15.3125 C4.69589361,15.3125 6.01105716,13.9973365 6.01105716,12.375 C6.01105716,10.7526635 4.69589361,9.4375 3.07355716,9.4375 Z M3.07355716,10.8125 C3.93650208,10.8125 4.63605716,11.5120551 4.63605716,12.375 C4.63605716,13.2379449 3.93650208,13.9375 3.07355716,13.9375 C2.21061224,13.9375 1.51105716,13.2379449 1.51105716,12.375 C1.51105716,11.5120551 2.21061224,10.8125 3.07355716,10.8125 Z" id="椭圆形" fill="#007AFF" transform="translate(3.073557, 12.375000) rotate(240.000000) translate(-3.073557, -12.375000) "></path>
                    <path d="M3.07355716,2.6875 C1.45122071,2.6875 0.136057159,4.00266355 0.136057159,5.625 C0.136057159,7.24733645 1.45122071,8.5625 3.07355716,8.5625 C4.69589361,8.5625 6.01105716,7.24733645 6.01105716,5.625 C6.01105716,4.00266355 4.69589361,2.6875 3.07355716,2.6875 Z M3.07355716,4.0625 C3.93650208,4.0625 4.63605716,4.76205508 4.63605716,5.625 C4.63605716,6.48794492 3.93650208,7.1875 3.07355716,7.1875 C2.21061224,7.1875 1.51105716,6.48794492 1.51105716,5.625 C1.51105716,4.76205508 2.21061224,4.0625 3.07355716,4.0625 Z" id="椭圆形" fill="#6A6A6A" transform="translate(3.073557, 5.625000) rotate(300.000000) translate(-3.073557, -5.625000) "></path>
                </g>
            </g>
        </g>
    </g>
</svg>