<?xml version="1.0" encoding="UTF-8"?>
<svg width="24px" height="24px" viewBox="0 0 24 24" version="1.1" xmlns="http://www.w3.org/2000/svg" xmlns:xlink="http://www.w3.org/1999/xlink">
    <title>编组 166</title>
    <g id="页面-1" stroke="none" stroke-width="1" fill="none" fill-rule="evenodd">
        <g id="浅色2" transform="translate(-1849.000000, -90.000000)">
            <g id="编组-166" transform="translate(1849.000000, 90.000000)">
                <rect id="矩形" fill="#E6E6E6" opacity="0" x="0" y="0" width="24" height="24"></rect>
                <g id="编组-165" transform="translate(4.000000, 4.000000)" fill-rule="nonzero">
                    <path d="M7.1875,-0.6875 L-0.6875,-0.6875 L-0.6875,7.1875 L7.1875,7.1875 L7.1875,-0.6875 Z M5.812,0.687 L5.812,5.812 L0.687,5.812 L0.687,0.687 L5.812,0.687 Z" id="矩形" fill="#6A6A6A"></path>
                    <path d="M7.1875,8.8125 L-0.6875,8.8125 L-0.6875,16.6875 L7.1875,16.6875 L7.1875,8.8125 Z M5.812,10.187 L5.812,15.312 L0.687,15.312 L0.687,10.187 L5.812,10.187 Z" id="矩形备份-97" fill="#007AFF"></path>
                    <path d="M16.6875,-0.6875 L8.8125,-0.6875 L8.8125,7.1875 L16.6875,7.1875 L16.6875,-0.6875 Z M15.312,0.687 L15.312,5.812 L10.187,5.812 L10.187,0.687 L15.312,0.687 Z" id="矩形备份-96" fill="#007AFF"></path>
                    <path d="M16.6875,8.8125 L8.8125,8.8125 L8.8125,16.6875 L16.6875,16.6875 L16.6875,8.8125 Z M15.312,10.187 L15.312,15.312 L10.187,15.312 L10.187,10.187 L15.312,10.187 Z" id="矩形备份-98" fill="#007AFF"></path>
                </g>
            </g>
        </g>
    </g>
</svg>