<?xml version="1.0" encoding="UTF-8"?>
<svg width="24px" height="24px" viewBox="0 0 24 24" version="1.1" xmlns="http://www.w3.org/2000/svg" xmlns:xlink="http://www.w3.org/1999/xlink">
    <title>编组 166备份 7</title>
    <g id="页面-1" stroke="none" stroke-width="1" fill="none" fill-rule="evenodd">
        <g id="浅色2" transform="translate(-587.000000, -239.000000)">
            <g id="编组-18" transform="translate(0.000000, 221.000000)">
                <g id="编组-166备份-7" transform="translate(587.000000, 18.000000)">
                    <rect id="矩形" fill="#E6E6E6" opacity="0" x="0" y="0" width="24" height="24"></rect>
                    <g id="向下右角_corner-down-right备份-2" transform="translate(4.500000, 14.000000)" fill="#007AFF" fill-rule="nonzero">
                        <polygon id="路径" points="3.68898527 2.45991325 4.71101473 1.54008675 6.92493665 4 4.71101473 6.45991325 3.68898527 5.54008675 5.075 4"></polygon>
                        <polygon id="路径" points="0.6875 0 0.687 3.312 6 3.3125 6 4.6875 -0.6875 4.6875 -0.6875 0"></polygon>
                    </g>
                    <g id="向下右角_corner-down-right备份-3" transform="translate(16.381282, 7.270043) rotate(-180.000000) translate(-16.381282, -7.270043) translate(12.575063, 4.040087)" fill="#007AFF" fill-rule="nonzero">
                        <path d="M1.375,0 L1.3745,3.312 L5.143,3.312 L4.37648527,2.45991325 L5.39851473,1.54008675 L7.61243665,4 L5.39851473,6.45991325 L4.37648527,5.54008675 L5.144,4.687 L6.03423747e-14,4.6875 L6.03423747e-14,0 L1.375,0 Z" id="形状结合"></path>
                    </g>
                    <g id="编组-165" transform="translate(4.000000, 4.000000)" fill-rule="nonzero">
                        <polygon id="矩形" fill="#D0D0D0" points="-3.60822483e-14 9.06407885e-14 6.5 -4.3298698e-14 6.5 6.5 -3.60822483e-14 6.5"></polygon>
                        <path d="M7.1875,-0.6875 L-0.6875,-0.6875 L-0.6875,7.1875 L7.1875,7.1875 L7.1875,-0.6875 Z M5.812,0.687 L5.812,5.812 L0.687,5.812 L0.687,0.687 L5.812,0.687 Z" id="矩形" fill="#6A6A6A"></path>
                        <path d="M16.6875,8.8125 L8.8125,8.8125 L8.8125,16.6875 L16.6875,16.6875 L16.6875,8.8125 Z M15.312,10.187 L15.312,15.312 L10.187,15.312 L10.187,10.187 L15.312,10.187 Z" id="矩形备份-99" fill="#6A6A6A"></path>
                    </g>
                </g>
            </g>
        </g>
    </g>
</svg>