<?xml version="1.0" encoding="UTF-8"?>
<svg width="24px" height="24px" viewBox="0 0 24 24" version="1.1" xmlns="http://www.w3.org/2000/svg" xmlns:xlink="http://www.w3.org/1999/xlink">
    <title>编组 166备份 8</title>
    <g id="页面-1" stroke="none" stroke-width="1" fill="none" fill-rule="evenodd">
        <g id="浅色2" transform="translate(-551.000000, -275.000000)">
            <g id="编组-18" transform="translate(0.000000, 221.000000)">
                <g id="编组-166备份-8" transform="translate(551.000000, 54.000000)">
                    <rect id="矩形" fill="#E6E6E6" opacity="0" x="0" y="0" width="24" height="24"></rect>
                    <g id="编组-165" transform="translate(3.312500, 3.312500)" fill-rule="nonzero">
                        <path d="M7.875,0 L0,0 L0,7.875 L7.875,7.875 L7.875,0 Z M6.4995,1.3745 L6.4995,6.4995 L1.3745,6.4995 L1.3745,1.3745 L6.4995,1.3745 Z" id="矩形" fill="#6A6A6A"></path>
                        <path d="M7.875,9.5 L0,9.5 L0,17.375 L7.875,17.375 L7.875,9.5 Z M6.4995,10.8745 L6.4995,15.9995 L1.3745,15.9995 L1.3745,10.8745 L6.4995,10.8745 Z" id="矩形备份-97" fill="#6A6A6A"></path>
                        <path d="M17.375,0 L9.5,0 L9.5,7.875 L17.375,7.875 L17.375,0 Z M15.9995,1.3745 L15.9995,6.4995 L10.8745,6.4995 L10.8745,1.3745 L15.9995,1.3745 Z" id="矩形备份-96" fill="#6A6A6A"></path>
                        <g id="返回_return备份-2" transform="translate(9.687500, 10.687500)" fill="#007AFF">
                            <polygon id="路径" stroke="#007AFF" stroke-width="1.375" stroke-linecap="round" points="1.36107067 0 0 1.125 1.36107067 2.4375"></polygon>
                            <path d="M4.47101155,0.4375 C6.17317718,0.4375 7.6177733,1.7771636 7.68506379,3.4409686 C7.75620262,5.1999872 6.27043838,6.6875 4.47101155,6.6875 L1.16635422,6.6875 L1.16635422,5.3125 L4.47101155,5.3125 C5.50124782,5.3125 6.35025274,4.4624959 6.31118691,3.49653236 C6.27414702,2.58069482 5.44578141,1.8125 4.47101155,1.8125 L0,1.8125 L0,0.4375 L4.47101155,0.4375 Z" id="路径"></path>
                        </g>
                    </g>
                </g>
            </g>
        </g>
    </g>
</svg>