<?xml version="1.0" encoding="UTF-8"?>
<svg width="24px" height="24px" viewBox="0 0 24 24" version="1.1" xmlns="http://www.w3.org/2000/svg" xmlns:xlink="http://www.w3.org/1999/xlink">
    <title>编组 13备份</title>
    <g id="页面-1" stroke="none" stroke-width="1" fill="none" fill-rule="evenodd">
        <g id="浅色2" transform="translate(-16.000000, -275.000000)">
            <g id="编组-18" transform="translate(0.000000, 221.000000)">
                <g id="编组-12备份-3" transform="translate(16.000000, 52.000000)">
                    <g id="编组-13备份" transform="translate(12.000000, 14.000000) scale(-1, 1) rotate(-270.000000) translate(-12.000000, -14.000000) translate(0.000000, 2.000000)">
                        <rect id="矩形备份-24" fill="#E6E6E6" opacity="0" x="0" y="0" width="24" height="24"></rect>
                        <path d="M7.6875,3.3125 L3.3125,3.3125 L3.3125,20.6875 L7.6875,20.6875 L7.6875,3.3125 Z M6.312,4.687 L6.312,19.312 L4.687,19.312 L4.687,4.687 L6.312,4.687 Z" id="矩形" fill="#6A6A6A" fill-rule="nonzero"></path>
                        <polygon id="矩形备份-38" fill="#D0D0D0" fill-rule="nonzero" points="10 4 13 4 13 20 10 20"></polygon>
                        <path d="M13.6875,3.3125 L9.3125,3.3125 L9.3125,20.6875 L13.6875,20.6875 L13.6875,3.3125 Z M12.312,4.687 L12.312,19.312 L10.687,19.312 L10.687,4.687 L12.312,4.687 Z" id="矩形备份-38" fill="#6A6A6A" fill-rule="nonzero"></path>
                        <polygon id="路径" fill="#007AFF" fill-rule="nonzero" points="19.7061594 19.3125 19.7061594 20.6875 15.3261594 20.6875 15.3261594 19.3125"></polygon>
                        <polygon id="路径备份" fill="#007AFF" fill-rule="nonzero" points="19.7061594 16.3125 19.7061594 17.6875 15.3261594 17.6875 15.3261594 16.3125"></polygon>
                        <polygon id="矩形备份-89" fill="#D0D0D0" fill-rule="nonzero" points="16 4 19 4 19 14 16 14"></polygon>
                        <path d="M19.6875,3.3125 L15.3125,3.3125 L15.3125,14.6875 L19.6875,14.6875 L19.6875,3.3125 Z M18.312,4.687 L18.312,13.312 L16.687,13.312 L16.687,4.687 L18.312,4.687 Z" id="矩形备份-89" fill="#6A6A6A" fill-rule="nonzero"></path>
                    </g>
                </g>
            </g>
        </g>
    </g>
</svg>