<?xml version="1.0" encoding="UTF-8"?>
<svg width="24px" height="24px" viewBox="0 0 24 24" version="1.1" xmlns="http://www.w3.org/2000/svg" xmlns:xlink="http://www.w3.org/1999/xlink">
    <title>编组 166备份 9</title>
    <g id="页面-1" stroke="none" stroke-width="1" fill="none" fill-rule="evenodd">
        <g id="浅色2" transform="translate(-587.000000, -275.000000)">
            <g id="编组-18" transform="translate(0.000000, 221.000000)">
                <g id="编组-166备份-9" transform="translate(587.000000, 54.000000)">
                    <rect id="矩形" fill="#E6E6E6" opacity="0" x="0" y="0" width="24" height="24"></rect>
                    <g id="校验-小_check-small备份" transform="translate(12.839366, 13.530906)" fill="#007AFF" fill-rule="nonzero">
                        <polygon id="路径" points="7 0 8.00520099 0.938187594 2.83593383 6.47668813 0 3.43818759 1.00520099 2.5 2.8356005 4.4610938"></polygon>
                    </g>
                    <g id="编组-165" transform="translate(4.000000, 4.000000)" fill="#6A6A6A" fill-rule="nonzero">
                        <path d="M7.1875,-0.6875 L-0.6875,-0.6875 L-0.6875,7.1875 L7.1875,7.1875 L7.1875,-0.6875 Z M5.812,0.687 L5.812,5.812 L0.687,5.812 L0.687,0.687 L5.812,0.687 Z" id="矩形"></path>
                        <path d="M7.1875,8.8125 L-0.6875,8.8125 L-0.6875,16.6875 L7.1875,16.6875 L7.1875,8.8125 Z M5.812,10.187 L5.812,15.312 L0.687,15.312 L0.687,10.187 L5.812,10.187 Z" id="矩形备份-97"></path>
                        <path d="M16.6875,-0.6875 L8.8125,-0.6875 L8.8125,7.1875 L16.6875,7.1875 L16.6875,-0.6875 Z M15.312,0.687 L15.312,5.812 L10.187,5.812 L10.187,0.687 L15.312,0.687 Z" id="矩形备份-96"></path>
                    </g>
                </g>
            </g>
        </g>
    </g>
</svg>