<?xml version="1.0" standalone="no"?><!DOCTYPE svg PUBLIC "-//W3C//DTD SVG 1.1//EN" "http://www.w3.org/Graphics/SVG/1.1/DTD/svg11.dtd"><svg t="1714030915982" class="icon" viewBox="0 0 1024 1024" version="1.1" xmlns="http://www.w3.org/2000/svg" p-id="13032" xmlns:xlink="http://www.w3.org/1999/xlink" width="200" height="200"><path d="M352.115058 512c0-10.955516 1.095961-21.650089 3.206018-31.989575L64.303027 480.010425l0 63.956637 291.019073 0C353.211019 533.642926 352.115058 522.954493 352.115058 512z" fill="#272636" p-id="13033"></path><path d="M668.676877 480.010425c2.110057 10.339486 3.207042 21.034059 3.207042 31.989575s-1.096984 21.643949-3.207042 31.968086l291.019073 0 0-63.956637L668.676877 480.011448z" fill="#272636" p-id="13034"></path><path d="M511.999488 416.067091c52.975539 0 95.919607 42.937928 95.919607 95.932909 0 52.988842-42.945091 95.933933-95.919607 95.933933-52.974515 0-95.947236-42.945091-95.947236-95.933933C416.052253 459.005019 459.024973 416.067091 511.999488 416.067091z" fill="#272636" p-id="13035"></path></svg>