<?xml version="1.0" standalone="no"?><!DOCTYPE svg PUBLIC "-//W3C//DTD SVG 1.1//EN" "http://www.w3.org/Graphics/SVG/1.1/DTD/svg11.dtd"><svg t="1714030865018" class="icon" viewBox="0 0 1024 1024" version="1.1" xmlns="http://www.w3.org/2000/svg" p-id="11654" xmlns:xlink="http://www.w3.org/1999/xlink" width="200" height="200"><path d="M478.464 513.152L929.28 64l30.656 30.528-450.816 449.152-30.72-30.528z m-234.24 235.776L354.56 638.912l30.72 30.592-110.464 110.016-30.72-30.592z m212.864-79.168l30.72-30.592 291.328 290.304-30.72 30.528-291.328-290.24zM64 274.368l30.72-30.528 269.888 268.928-30.72 30.528L64 274.368z" fill="#2c2c2c" p-id="11655"></path><path d="M422.912 692.672a111.808 111.808 0 0 1-112.832-112.384c0-64.832 47.744-112.32 112.832-112.32 60.672 0 112.768 47.488 112.768 112.32a111.808 111.808 0 0 1-112.768 112.384z m0-177.216c-39.04 0-69.44 30.272-69.44 69.12 0 38.912 30.4 69.184 69.44 69.184s69.376-30.272 69.376-69.12c-4.352-38.912-34.688-69.12-69.376-69.12z" fill="#2c2c2c" p-id="11656"></path></svg>