<?xml version="1.0" encoding="utf-8"?>
<!-- Generator: Adobe Illustrator 22.1.0, SVG Export Plug-In . SVG Version: 6.00 Build 0)  -->
<svg version="1.1" id="图层_1" xmlns="http://www.w3.org/2000/svg" xmlns:xlink="http://www.w3.org/1999/xlink" x="0px" y="0px"
	 viewBox="0 0 178 179" style="enable-background:new 0 0 178 179;" xml:space="preserve">
<style type="text/css">
	.st0{fill:#30DDE5;stroke:#000000;stroke-width:2;stroke-miterlimit:10;}
</style>
<path class="st0" d="M177,106V74h-32.2c-1.2-4.3-2.9-8.3-5-12.1l22.8-22.8l-22.6-22.6l-22.8,22.8c-3.8-2.1-7.8-3.8-12.1-5V2H73v32.2
	c-4.3,1.2-8.3,2.9-12.1,5L38.1,16.5L15.5,39.1l22.8,22.8c-2.1,3.8-3.8,7.8-5,12.1H1v32h32.2c1.2,4.3,2.9,8.3,5,12.1l-22.8,22.8
	l22.6,22.6l22.8-22.8c3.8,2.1,7.8,3.8,12.1,5V178h32v-32.2c4.3-1.2,8.3-2.9,12.1-5l22.8,22.8l22.6-22.6l-22.8-22.8
	c2.1-3.8,3.8-7.8,5-12.1H177z M89,121c-17.1,0-31-13.9-31-31c0-17.1,13.9-31,31-31s31,13.9,31,31C120,107.1,106.1,121,89,121z"/>
</svg>
