<?xml version="1.0" encoding="utf-8"?>
<svg version="1.1" xmlns="http://www.w3.org/2000/svg" x="0px" y="0px"
	 viewBox="20 20 180 180" style="enable-background:new 20 20 180 180;" xml:space="preserve">
<style type="text/css">
	.st0{fill:#30DDE5;stroke:#000000;stroke-width:10;stroke-linecap:round;stroke-linejoin:round;stroke-miterlimit:10;}
	.st1{fill:#FFFFFF;stroke:#000000;stroke-width:10;stroke-linecap:round;stroke-linejoin:round;stroke-miterlimit:10;}
	.st2{fill:none;stroke:#000000;stroke-width:9;stroke-linecap:round;stroke-linejoin:round;stroke-miterlimit:10;}
	.st3{fill:#FFFFFF;stroke:#000000;stroke-width:6;stroke-linecap:round;stroke-linejoin:round;stroke-miterlimit:10;}
	.st4{fill:#30DDE5;stroke:#000000;stroke-width:6;stroke-linecap:round;stroke-linejoin:round;stroke-miterlimit:10;}
</style>
<g>
	<path class="st0" d="M48,42h98l28,28v104c0,8.8-7.2,16-16,16H48c-8.8,0-16-7.2-16-16V58C32,49.2,39.2,42,48,42z"/>
	<path class="st1" d="M64,42h70v45c0,5.5-4.5,10-10,10H74c-5.5,0-10-4.5-10-10V42z"/>
	<rect class="st1" x="62" y="128" width="82" height="46" rx="8" ry="8"/>
	<line class="st2" x1="88" y1="66" x2="116" y2="66"/>
	<polygon class="st3" points="142,38 164,26 187,38 165,51"/>
	<polygon class="st4" points="142,38 165,51 165,78 142,65"/>
	<polygon class="st3" points="165,51 187,38 187,65 165,78"/>
</g>
</svg>
