<?xml version="1.0" standalone="no"?><!DOCTYPE svg PUBLIC "-//W3C//DTD SVG 1.1//EN" "http://www.w3.org/Graphics/SVG/1.1/DTD/svg11.dtd"><svg t="1714029059125" class="icon" viewBox="0 0 1024 1024" version="1.1" xmlns="http://www.w3.org/2000/svg" p-id="49823" xmlns:xlink="http://www.w3.org/1999/xlink" width="200" height="200"><path d="M354.304 936.2432h-276.48V669.3888h51.2v215.6544h225.28v51.2zM940.8512 936.2432H663.8592v-51.2h225.792V662.4256h51.2v273.8176zM940.8512 314.88h-51.2v-190.464h-225.28v-51.2h276.48v241.664zM129.024 315.4944h-51.2V73.216h275.8656v51.2H129.024v191.0784z" p-id="49824"></path><path d="M520.2944 848.4864a332.8 332.8 0 1 1 332.8-332.8 333.2096 333.2096 0 0 1-332.8 332.8z m0-614.4a281.6 281.6 0 1 0 281.6 281.4976 281.9072 281.9072 0 0 0-281.6-281.3952z" p-id="49825"></path><path d="M520.2944 634.88a119.1936 119.1936 0 1 1 119.1936-119.1936A119.296 119.296 0 0 1 520.2944 634.88z m0-206.2336a87.1424 87.1424 0 1 0 87.04 87.04 87.1424 87.1424 0 0 0-87.04-87.04zM494.6944 822.8864h51.2V921.6h-51.2zM494.6944 120.7296h51.2v98.7136h-51.2zM838.4512 479.1296h98.7136v51.2h-98.7136zM114.3808 468.1728h98.7136v51.2h-98.7136z" p-id="49826"></path></svg>