<?xml version="1.0" standalone="no"?><!DOCTYPE svg PUBLIC "-//W3C//DTD SVG 1.1//EN" "http://www.w3.org/Graphics/SVG/1.1/DTD/svg11.dtd"><svg t="1714028682161" class="icon" viewBox="0 0 1024 1024" version="1.1" xmlns="http://www.w3.org/2000/svg" p-id="48809" xmlns:xlink="http://www.w3.org/1999/xlink" width="200" height="200"><path d="M614.4 128a38.4 38.4 0 0 0-71.552-19.328l-448 768A38.4 38.4 0 0 0 128 934.4h448a38.4 38.4 0 0 0 38.4-38.4V128zM537.6 857.6H194.88L537.6 270.08v587.52z m204.8-742.4a38.4 38.4 0 0 0-37.888 44.8 38.4 38.4 0 0 0-0.512 6.4v691.2c0 1.088 0 2.176 0.128 3.2a38.4 38.4 0 0 0 38.272 41.6h115.2a38.4 38.4 0 1 0 0-76.8h-76.8v-160h76.8a38.4 38.4 0 1 0 0-76.8h-76.8V428.8h140.8a38.4 38.4 0 1 0 0-76.8h-140.8V192h76.8a38.4 38.4 0 1 0 0-76.8h-115.2z" p-id="48810"></path></svg>