0
SECTION
2
HEADER
9
$ACADVER
1
AC1015
9
$DWGCODEPAGE
3
ANSI_1252
9
$INSUNITS
70
4
9
$LTSCALE
40
1.000000
9
$HANDSEED
5
FFFFFF
0
ENDSEC
0
SECTION
2
TABLES
0
TABLE
2
LTYPE
5
100
100
AcDbSymbolTable
70
3
0
LTYPE
5
101
100
AcDbSymbolTableRecord
100
AcDbLinetypeTableRecord
2
ByBlock
70
0
3

72
65
73
0
40
0.000000
0
LTYPE
5
102
100
AcDbSymbolTableRecord
100
AcDbLinetypeTableRecord
2
ByLayer
70
0
3

72
65
73
0
40
0.000000
0
LTYPE
5
103
100
AcDbSymbolTableRecord
100
AcDbLinetypeTableRecord
2
CONTINUOUS
70
0
3
Solid line
72
65
73
0
40
0.000000
0
ENDTAB
0
TABLE
2
LAYER
5
104
100
AcDbSymbolTable
70
3
0
LAYER
5
105
100
AcDbSymbolTableRecord
100
AcDbLayerTableRecord
2
0
70
0
62
7
6
CONTINUOUS
370
-3
390
F
0
LAYER
5
106
100
AcDbSymbolTableRecord
100
AcDbLayerTableRecord
2
RED
70
0
62
1
6
CONTINUOUS
370
-3
390
F
0
LAYER
5
107
100
AcDbSymbolTableRecord
100
AcDbLayerTableRecord
2
BLUE
70
0
62
5
6
CONTINUOUS
370
-3
390
F
0
ENDTAB
0
TABLE
2
STYLE
5
108
100
AcDbSymbolTable
70
1
0
STYLE
5
109
100
AcDbSymbolTableRecord
100
AcDbTextStyleTableRecord
2
Standard
70
0
40
0.000000
41
1.000000
50
0.000000
71
0
42
2.500000
3
txt
4

0
ENDTAB
0
TABLE
2
APPID
5
10A
100
AcDbSymbolTable
70
1
0
APPID
5
10B
100
AcDbSymbolTableRecord
100
AcDbRegAppTableRecord
2
ACAD
70
0
0
ENDTAB
0
TABLE
2
DIMSTYLE
5
10C
100
AcDbSymbolTable
70
1
100
AcDbDimStyleTable
71
0
0
DIMSTYLE
105
10D
100
AcDbSymbolTableRecord
100
AcDbDimStyleTableRecord
2
Standard
70
0
41
0.180000
140
0.180000
0
ENDTAB
0
TABLE
2
BLOCK_RECORD
5
10E
100
AcDbSymbolTable
70
3
0
BLOCK_RECORD
5
1F
100
AcDbSymbolTableRecord
100
AcDbBlockTableRecord
2
*Model_Space
70
0
280
1
281
0
0
BLOCK_RECORD
5
1E
100
AcDbSymbolTableRecord
100
AcDbBlockTableRecord
2
*Paper_Space
70
0
280
1
281
0
0
BLOCK_RECORD
5
30
100
AcDbSymbolTableRecord
100
AcDbBlockTableRecord
2
MIX
70
0
280
1
281
0
0
ENDTAB
0
ENDSEC
0
SECTION
2
BLOCKS
0
BLOCK
5
10F
330
1F
100
AcDbEntity
8
0
100
AcDbBlockBegin
2
*Model_Space
70
0
10
0.000000
20
0.000000
30
0.000000
3
*Model_Space
1

0
ENDBLK
5
110
330
1F
100
AcDbEntity
8
0
100
AcDbBlockEnd
0
BLOCK
5
111
330
1E
100
AcDbEntity
8
0
100
AcDbBlockBegin
2
*Paper_Space
70
0
10
0.000000
20
0.000000
30
0.000000
3
*Paper_Space
1

0
ENDBLK
5
112
330
1E
100
AcDbEntity
8
0
100
AcDbBlockEnd
0
BLOCK
5
113
330
30
100
AcDbEntity
8
0
100
AcDbBlockBegin
2
MIX
70
0
10
0.000000
20
0.000000
30
0.000000
3
MIX
1

0
CIRCLE
5
114
330
30
100
AcDbEntity
8
0
62
0
100
AcDbCircle
10
0.000000
20
0.000000
30
0.000000
40
0.800000
0
LINE
5
115
330
30
100
AcDbEntity
8
0
62
0
100
AcDbLine
10
-0.800000
20
-0.800000
30
0.000000
11
0.800000
21
0.800000
31
0.000000
0
LINE
5
116
330
30
100
AcDbEntity
8
0
100
AcDbLine
10
-0.800000
20
0.800000
30
0.000000
11
0.800000
21
-0.800000
31
0.000000
0
LWPOLYLINE
5
117
330
30
100
AcDbEntity
8
0
62
3
100
AcDbPolyline
90
4
70
1
43
0.000000
10
-1.000000
20
-1.000000
10
1.000000
20
-1.000000
10
1.000000
20
1.000000
10
-1.000000
20
1.000000
0
ENDBLK
5
118
330
30
100
AcDbEntity
8
0
100
AcDbBlockEnd
0
ENDSEC
0
SECTION
2
ENTITIES
0
LINE
5
119
330
1F
100
AcDbEntity
8
0
62
1
100
AcDbLine
10
0.000000
20
0.000000
30
0.000000
11
1.500000
21
1.500000
31
0.000000
0
CIRCLE
5
11A
330
1F
100
AcDbEntity
8
0
62
1
100
AcDbCircle
10
0.750000
20
-1.000000
30
0.000000
40
0.600000
0
LINE
5
11B
330
1F
100
AcDbEntity
8
0
62
2
100
AcDbLine
10
2.000000
20
0.000000
30
0.000000
11
3.500000
21
1.500000
31
0.000000
0
CIRCLE
5
11C
330
1F
100
AcDbEntity
8
0
62
2
100
AcDbCircle
10
2.750000
20
-1.000000
30
0.000000
40
0.600000
0
LINE
5
11D
330
1F
100
AcDbEntity
8
0
62
3
100
AcDbLine
10
4.000000
20
0.000000
30
0.000000
11
5.500000
21
1.500000
31
0.000000
0
CIRCLE
5
11E
330
1F
100
AcDbEntity
8
0
62
3
100
AcDbCircle
10
4.750000
20
-1.000000
30
0.000000
40
0.600000
0
LINE
5
11F
330
1F
100
AcDbEntity
8
0
62
4
100
AcDbLine
10
6.000000
20
0.000000
30
0.000000
11
7.500000
21
1.500000
31
0.000000
0
CIRCLE
5
120
330
1F
100
AcDbEntity
8
0
62
4
100
AcDbCircle
10
6.750000
20
-1.000000
30
0.000000
40
0.600000
0
LINE
5
121
330
1F
100
AcDbEntity
8
0
62
5
100
AcDbLine
10
8.000000
20
0.000000
30
0.000000
11
9.500000
21
1.500000
31
0.000000
0
CIRCLE
5
122
330
1F
100
AcDbEntity
8
0
62
5
100
AcDbCircle
10
8.750000
20
-1.000000
30
0.000000
40
0.600000
0
LINE
5
123
330
1F
100
AcDbEntity
8
0
62
6
100
AcDbLine
10
10.000000
20
0.000000
30
0.000000
11
11.500000
21
1.500000
31
0.000000
0
CIRCLE
5
124
330
1F
100
AcDbEntity
8
0
62
6
100
AcDbCircle
10
10.750000
20
-1.000000
30
0.000000
40
0.600000
0
LINE
5
125
330
1F
100
AcDbEntity
8
0
62
7
100
AcDbLine
10
12.000000
20
0.000000
30
0.000000
11
13.500000
21
1.500000
31
0.000000
0
CIRCLE
5
126
330
1F
100
AcDbEntity
8
0
62
7
100
AcDbCircle
10
12.750000
20
-1.000000
30
0.000000
40
0.600000
0
LINE
5
127
330
1F
100
AcDbEntity
8
0
420
16744448
100
AcDbLine
10
0.000000
20
-3.500000
30
0.000000
11
3.000000
21
-2.500000
31
0.000000
0
LINE
5
128
330
1F
100
AcDbEntity
8
0
420
0
100
AcDbLine
10
4.000000
20
-3.500000
30
0.000000
11
7.000000
21
-2.500000
31
0.000000
0
LINE
5
129
330
1F
100
AcDbEntity
8
RED
100
AcDbLine
10
8.000000
20
-3.500000
30
0.000000
11
11.000000
21
-2.500000
31
0.000000
0
LINE
5
12A
330
1F
100
AcDbEntity
8
BLUE
62
256
100
AcDbLine
10
12.000000
20
-3.500000
30
0.000000
11
15.000000
21
-2.500000
31
0.000000
0
INSERT
5
12B
330
1F
100
AcDbEntity
8
0
62
1
100
AcDbBlockReference
2
MIX
10
1.500000
20
-6.000000
30
0.000000
41
1.000000
42
1.000000
43
1.000000
50
0.000000
0
INSERT
5
12C
330
1F
100
AcDbEntity
8
0
62
5
100
AcDbBlockReference
2
MIX
10
5.000000
20
-6.000000
30
0.000000
41
1.000000
42
1.000000
43
1.000000
50
0.000000
0
INSERT
5
12D
330
1F
100
AcDbEntity
8
RED
100
AcDbBlockReference
2
MIX
10
8.500000
20
-6.000000
30
0.000000
41
1.000000
42
1.000000
43
1.000000
50
0.000000
0
INSERT
5
12E
330
1F
100
AcDbEntity
8
BLUE
420
13158400
100
AcDbBlockReference
2
MIX
10
12.000000
20
-6.000000
30
0.000000
41
1.000000
42
1.000000
43
1.000000
50
0.000000
0
ENDSEC
0
SECTION
2
OBJECTS
0
DICTIONARY
5
12F
100
AcDbDictionary
281
1
0
ENDSEC
0
EOF
