0
SECTION
2
HEADER
9
$ACADVER
1
AC1015
9
$DWGCODEPAGE
3
ANSI_1252
9
$INSUNITS
70
4
9
$LTSCALE
40
1.000000
9
$HANDSEED
5
FFFFFF
0
ENDSEC
0
SECTION
2
CLASSES
0
CLASS
1
ACDBDICTIONARYWDFLT
2
AcDbDictionaryWithDefault
3
ObjectDBX Classes
90
0
280
0
281
0
0
CLASS
1
ACDBPLACEHOLDER
2
AcDbPlaceHolder
3
ObjectDBX Classes
90
0
280
0
281
0
0
ENDSEC
0
SECTION
2
TABLES
0
TABLE
2
VPORT
5
100
100
AcDbSymbolTable
70
0
0
ENDTAB
0
TABLE
2
LTYPE
5
101
100
AcDbSymbolTable
70
3
0
LTYPE
5
102
100
AcDbSymbolTableRecord
100
AcDbLinetypeTableRecord
2
ByBlock
70
0
3

72
65
73
0
40
0.000000
0
LTYPE
5
103
100
AcDbSymbolTableRecord
100
AcDbLinetypeTableRecord
2
ByLayer
70
0
3

72
65
73
0
40
0.000000
0
LTYPE
5
104
100
AcDbSymbolTableRecord
100
AcDbLinetypeTableRecord
2
CONTINUOUS
70
0
3
Solid line
72
65
73
0
40
0.000000
0
ENDTAB
0
TABLE
2
LAYER
5
105
100
AcDbSymbolTable
70
1
0
LAYER
5
106
100
AcDbSymbolTableRecord
100
AcDbLayerTableRecord
2
0
70
0
62
7
6
CONTINUOUS
370
-3
390
C
0
ENDTAB
0
TABLE
2
STYLE
5
107
100
AcDbSymbolTable
70
1
0
STYLE
5
108
100
AcDbSymbolTableRecord
100
AcDbTextStyleTableRecord
2
Standard
70
0
40
0.000000
41
1.000000
50
0.000000
71
0
42
2.500000
3
txt
4

0
ENDTAB
0
TABLE
2
VIEW
5
109
100
AcDbSymbolTable
70
0
0
ENDTAB
0
TABLE
2
UCS
5
10A
100
AcDbSymbolTable
70
0
0
ENDTAB
0
TABLE
2
APPID
5
10B
100
AcDbSymbolTable
70
1
0
APPID
5
10C
100
AcDbSymbolTableRecord
100
AcDbRegAppTableRecord
2
ACAD
70
0
0
ENDTAB
0
TABLE
2
DIMSTYLE
5
10D
100
AcDbSymbolTable
70
1
100
AcDbDimStyleTable
71
0
0
DIMSTYLE
105
10E
100
AcDbSymbolTableRecord
100
AcDbDimStyleTableRecord
2
Standard
70
0
41
0.180000
140
0.180000
0
ENDTAB
0
TABLE
2
BLOCK_RECORD
5
10F
100
AcDbSymbolTable
70
3
0
BLOCK_RECORD
5
1F
100
AcDbSymbolTableRecord
100
AcDbBlockTableRecord
2
*Model_Space
70
0
280
1
281
0
0
BLOCK_RECORD
5
1E
100
AcDbSymbolTableRecord
100
AcDbBlockTableRecord
2
*Paper_Space
70
0
280
1
281
0
0
BLOCK_RECORD
5
30
100
AcDbSymbolTableRecord
100
AcDbBlockTableRecord
2
BOX
70
0
280
1
281
0
0
ENDTAB
0
ENDSEC
0
SECTION
2
BLOCKS
0
BLOCK
5
110
330
1F
100
AcDbEntity
8
0
100
AcDbBlockBegin
2
*Model_Space
70
0
10
0.000000
20
0.000000
30
0.000000
3
*Model_Space
1

0
ENDBLK
5
111
330
1F
100
AcDbEntity
8
0
100
AcDbBlockEnd
0
BLOCK
5
112
330
1E
100
AcDbEntity
8
0
100
AcDbBlockBegin
2
*Paper_Space
70
0
10
0.000000
20
0.000000
30
0.000000
3
*Paper_Space
1

0
ENDBLK
5
113
330
1E
100
AcDbEntity
8
0
100
AcDbBlockEnd
0
BLOCK
5
114
330
30
100
AcDbEntity
8
0
100
AcDbBlockBegin
2
BOX
70
0
10
0.000000
20
0.000000
30
0.000000
3
BOX
1

0
LWPOLYLINE
5
115
330
30
100
AcDbEntity
8
0
100
AcDbPolyline
90
4
70
1
43
0.000000
10
-0.500000
20
-0.500000
10
0.500000
20
-0.500000
10
0.500000
20
0.500000
10
-0.500000
20
0.500000
0
LINE
5
116
330
30
100
AcDbEntity
8
0
100
AcDbLine
10
-0.500000
20
-0.500000
30
0.000000
11
0.500000
21
0.500000
31
0.000000
0
ENDBLK
5
117
330
30
100
AcDbEntity
8
0
100
AcDbBlockEnd
0
ENDSEC
0
SECTION
2
ENTITIES
0
POINT
5
118
330
1F
100
AcDbEntity
8
0
100
AcDbPoint
10
0.000000
20
0.000000
30
0.000000
0
POINT
5
119
330
1F
100
AcDbEntity
8
0
100
AcDbPoint
10
0.500000
20
0.000000
30
0.000000
0
LINE
5
11A
330
1F
100
AcDbEntity
8
0
100
AcDbLine
10
1.500000
20
-1.000000
30
0.000000
11
3.500000
21
1.000000
31
0.000000
0
ARC
5
11B
330
1F
100
AcDbEntity
8
0
100
AcDbCircle
10
6.000000
20
0.000000
30
0.000000
40
1.000000
100
AcDbArc
50
30.000000
51
240.000000
0
CIRCLE
5
11C
330
1F
100
AcDbEntity
8
0
100
AcDbCircle
10
9.500000
20
0.000000
30
0.000000
40
1.200000
0
ELLIPSE
5
11D
330
1F
100
AcDbEntity
8
0
100
AcDbEllipse
10
13.500000
20
0.000000
30
0.000000
11
1.800000
21
0.600000
31
0.000000
40
0.500000
41
0.000000
42
6.283185
0
ELLIPSE
5
11E
330
1F
100
AcDbEntity
8
0
100
AcDbEllipse
10
17.500000
20
0.000000
30
0.000000
11
0.000000
21
1.500000
31
0.000000
40
0.600000
41
0.500000
42
4.000000
0
SPLINE
5
11F
330
1F
100
AcDbEntity
8
0
100
AcDbSpline
210
0.000000
220
0.000000
230
1.000000
70
8
71
3
72
9
73
5
74
0
42
0.000000
43
0.000000
40
0.000000
40
0.000000
40
0.000000
40
0.000000
40
1.000000
40
2.000000
40
2.000000
40
2.000000
40
2.000000
10
0.000000
20
-4.000000
30
0.000000
10
1.000000
20
-2.500000
30
0.000000
10
2.000000
20
-5.000000
30
0.000000
10
3.000000
20
-3.000000
30
0.000000
10
4.000000
20
-4.500000
30
0.000000
0
SPLINE
5
120
330
1F
100
AcDbEntity
8
0
100
AcDbSpline
210
0.000000
220
0.000000
230
1.000000
70
9
71
3
72
0
73
0
74
7
44
0.000000
11
5.500000
21
-4.000000
31
0.000000
11
6.500000
21
-2.800000
31
0.000000
11
8.000000
21
-3.200000
31
0.000000
11
8.500000
21
-4.800000
31
0.000000
11
7.000000
21
-5.500000
31
0.000000
11
5.800000
21
-5.000000
31
0.000000
11
5.500000
21
-4.000000
31
0.000000
0
LWPOLYLINE
5
121
330
1F
100
AcDbEntity
8
0
100
AcDbPolyline
90
4
70
1
43
0.000000
10
10.000000
20
-5.000000
10
11.500000
20
-5.000000
42
0.500000
10
12.500000
20
-3.000000
10
10.000000
20
-3.000000
42
-1.000000
0
LWPOLYLINE
5
122
330
1F
100
AcDbEntity
8
0
100
AcDbPolyline
90
3
70
0
43
0.000000
10
14.000000
20
-5.000000
40
0.000000
41
0.600000
10
15.500000
20
-3.000000
40
0.600000
41
0.100000
42
0.400000
10
17.500000
20
-4.500000
40
0.100000
41
0.100000
0
LWPOLYLINE
5
123
330
1F
100
AcDbEntity
8
0
100
AcDbPolyline
90
3
70
0
43
0.250000
10
18.500000
20
-5.000000
10
19.500000
20
-3.000000
10
20.000000
20
-5.000000
0
SOLID
5
124
330
1F
100
AcDbEntity
8
0
62
3
100
AcDbTrace
10
0.000000
20
-9.000000
30
0.000000
11
2.000000
21
-9.000000
31
0.000000
12
0.000000
22
-7.000000
32
0.000000
13
2.500000
23
-7.500000
33
0.000000
0
TRACE
5
125
330
1F
100
AcDbEntity
8
0
62
4
100
AcDbTrace
10
3.500000
20
-9.000000
30
0.000000
11
5.000000
21
-8.500000
31
0.000000
12
3.500000
22
-7.500000
32
0.000000
13
5.000000
23
-7.000000
33
0.000000
0
HATCH
5
126
330
1F
100
AcDbEntity
8
0
62
5
100
AcDbHatch
10
0.000000
20
0.000000
30
0.000000
210
0.000000
220
0.000000
230
1.000000
2
SOLID
70
1
71
0
91
1
92
3
72
0
73
1
93
5
10
7.000000
20
-9.000000
10
9.500000
20
-9.000000
10
10.000000
20
-7.500000
10
8.000000
20
-6.800000
10
6.800000
20
-7.800000
97
0
75
0
76
1
98
0
0
HATCH
5
127
330
1F
100
AcDbEntity
8
0
62
6
100
AcDbHatch
10
0.000000
20
0.000000
30
0.000000
210
0.000000
220
0.000000
230
1.000000
2
SOLID
70
1
71
0
91
1
92
1
93
4
72
1
10
10.500000
20
-9.000000
11
11.500000
21
-9.000000
72
1
10
11.500000
20
-9.000000
11
11.500000
21
-8.000000
72
1
10
11.500000
20
-8.000000
11
10.500000
21
-8.000000
72
1
10
10.500000
20
-8.000000
11
10.500000
21
-9.000000
97
0
75
0
76
1
98
0
0
LEADER
5
128
330
1F
100
AcDbEntity
8
0
100
AcDbLeader
3
Standard
71
1
72
0
73
3
76
3
10
12.000000
20
-9.000000
30
0.000000
10
13.500000
20
-7.000000
30
0.000000
10
15.000000
20
-7.000000
30
0.000000
0
INSERT
5
129
330
1F
100
AcDbEntity
8
0
100
AcDbBlockReference
2
BOX
10
17.000000
20
-8.000000
30
0.000000
41
1.500000
42
1.500000
43
1.000000
50
15.000000
0
RAY
5
12A
330
1F
100
AcDbEntity
8
0
62
1
100
AcDbRay
10
0.000000
20
-11.000000
30
0.000000
11
0.980581
21
0.196116
31
0.000000
0
XLINE
5
12B
330
1F
100
AcDbEntity
8
0
62
2
100
AcDbXline
10
10.000000
20
2.500000
30
0.000000
11
0.928477
21
-0.371391
31
0.000000
0
ENDSEC
0
SECTION
2
OBJECTS
0
DICTIONARY
5
A
330
0
100
AcDbDictionary
281
1
3
ACAD_PLOTSTYLENAME
350
B
0
ACDBDICTIONARYWDFLT
5
B
330
A
100
AcDbDictionary
281
1
3
Normal
350
C
100
AcDbDictionaryWithDefault
340
C
0
ACDBPLACEHOLDER
5
C
330
B
0
ENDSEC
0
EOF
