0
SECTION
2
HEADER
9
$ACADVER
1
AC1015
9
$DWGCODEPAGE
3
ANSI_1252
9
$INSUNITS
70
4
9
$LTSCALE
40
1.000000
9
$HANDSEED
5
FFFFFF
0
ENDSEC
0
SECTION
2
TABLES
0
TABLE
2
LTYPE
5
100
100
AcDbSymbolTable
70
8
0
LTYPE
5
101
100
AcDbSymbolTableRecord
100
AcDbLinetypeTableRecord
2
ByBlock
70
0
3

72
65
73
0
40
0.000000
0
LTYPE
5
102
100
AcDbSymbolTableRecord
100
AcDbLinetypeTableRecord
2
ByLayer
70
0
3

72
65
73
0
40
0.000000
0
LTYPE
5
103
100
AcDbSymbolTableRecord
100
AcDbLinetypeTableRecord
2
CONTINUOUS
70
0
3
Solid line
72
65
73
0
40
0.000000
0
LTYPE
5
104
100
AcDbSymbolTableRecord
100
AcDbLinetypeTableRecord
2
DASHED
70
0
3
Dashed __ __ __
72
65
73
2
40
0.750000
49
0.500000
74
0
49
-0.250000
74
0
0
LTYPE
5
105
100
AcDbSymbolTableRecord
100
AcDbLinetypeTableRecord
2
HIDDEN
70
0
3
Hidden _ _ _ _
72
65
73
2
40
0.375000
49
0.250000
74
0
49
-0.125000
74
0
0
LTYPE
5
106
100
AcDbSymbolTableRecord
100
AcDbLinetypeTableRecord
2
CENTER
70
0
3
Center ____ _ ____
72
65
73
4
40
2.000000
49
1.250000
74
0
49
-0.250000
74
0
49
0.250000
74
0
49
-0.250000
74
0
0
LTYPE
5
107
100
AcDbSymbolTableRecord
100
AcDbLinetypeTableRecord
2
DASHDOT
70
0
3
Dash dot __ . __
72
65
73
4
40
1.000000
49
0.500000
74
0
49
-0.250000
74
0
49
0.000000
74
0
49
-0.250000
74
0
0
LTYPE
5
108
100
AcDbSymbolTableRecord
100
AcDbLinetypeTableRecord
2
DOT
70
0
3
Dot . . . .
72
65
73
2
40
0.250000
49
0.000000
74
0
49
-0.250000
74
0
0
ENDTAB
0
TABLE
2
LAYER
5
109
100
AcDbSymbolTable
70
1
0
LAYER
5
10A
100
AcDbSymbolTableRecord
100
AcDbLayerTableRecord
2
0
70
0
62
7
6
CONTINUOUS
370
-3
390
F
0
ENDTAB
0
TABLE
2
STYLE
5
10B
100
AcDbSymbolTable
70
1
0
STYLE
5
10C
100
AcDbSymbolTableRecord
100
AcDbTextStyleTableRecord
2
Standard
70
0
40
0.000000
41
1.000000
50
0.000000
71
0
42
2.500000
3
txt
4

0
ENDTAB
0
TABLE
2
APPID
5
10D
100
AcDbSymbolTable
70
1
0
APPID
5
10E
100
AcDbSymbolTableRecord
100
AcDbRegAppTableRecord
2
ACAD
70
0
0
ENDTAB
0
TABLE
2
DIMSTYLE
5
10F
100
AcDbSymbolTable
70
1
100
AcDbDimStyleTable
71
0
0
DIMSTYLE
105
110
100
AcDbSymbolTableRecord
100
AcDbDimStyleTableRecord
2
Standard
70
0
41
0.180000
140
0.180000
0
ENDTAB
0
TABLE
2
BLOCK_RECORD
5
111
100
AcDbSymbolTable
70
2
0
BLOCK_RECORD
5
1F
100
AcDbSymbolTableRecord
100
AcDbBlockTableRecord
2
*Model_Space
70
0
280
1
281
0
0
BLOCK_RECORD
5
1E
100
AcDbSymbolTableRecord
100
AcDbBlockTableRecord
2
*Paper_Space
70
0
280
1
281
0
0
ENDTAB
0
ENDSEC
0
SECTION
2
BLOCKS
0
BLOCK
5
112
330
1F
100
AcDbEntity
8
0
100
AcDbBlockBegin
2
*Model_Space
70
0
10
0.000000
20
0.000000
30
0.000000
3
*Model_Space
1

0
ENDBLK
5
113
330
1F
100
AcDbEntity
8
0
100
AcDbBlockEnd
0
BLOCK
5
114
330
1E
100
AcDbEntity
8
0
100
AcDbBlockBegin
2
*Paper_Space
70
0
10
0.000000
20
0.000000
30
0.000000
3
*Paper_Space
1

0
ENDBLK
5
115
330
1E
100
AcDbEntity
8
0
100
AcDbBlockEnd
0
ENDSEC
0
SECTION
2
ENTITIES
0
LINE
5
116
330
1F
100
AcDbEntity
8
0
6
DASHED
100
AcDbLine
10
0.000000
20
0.000000
30
0.000000
11
0.500000
21
0.000000
31
0.000000
0
LINE
5
117
330
1F
100
AcDbEntity
8
0
6
DASHED
100
AcDbLine
10
1.100000
20
0.000000
30
0.000000
11
2.500000
21
0.000000
31
0.000000
0
LINE
5
118
330
1F
100
AcDbEntity
8
0
6
DASHED
100
AcDbLine
10
3.100000
20
0.000000
30
0.000000
11
4.700000
21
0.000000
31
0.000000
0
LINE
5
119
330
1F
100
AcDbEntity
8
0
6
DASHED
100
AcDbLine
10
5.300000
20
0.000000
30
0.000000
11
7.500000
21
0.000000
31
0.000000
0
LINE
5
11A
330
1F
100
AcDbEntity
8
0
6
DASHED
100
AcDbLine
10
8.100000
20
0.000000
30
0.000000
11
14.100000
21
0.000000
31
0.000000
0
ARC
5
11B
330
1F
100
AcDbEntity
8
0
6
DASHED
100
AcDbCircle
10
15.200000
20
-0.800000
30
0.000000
40
1.000000
100
AcDbArc
50
0.000000
51
100.000000
0
CIRCLE
5
11C
330
1F
100
AcDbEntity
8
0
6
DASHED
100
AcDbCircle
10
17.900000
20
-0.200000
30
0.000000
40
1.000000
0
CIRCLE
5
11D
330
1F
100
AcDbEntity
8
0
6
DASHED
100
AcDbCircle
10
20.500000
20
-0.200000
30
0.000000
40
1.150000
0
ELLIPSE
5
11E
330
1F
100
AcDbEntity
8
0
6
DASHED
100
AcDbEllipse
10
23.200000
20
-0.200000
30
0.000000
11
1.000000
21
0.000000
31
0.000000
40
0.500000
41
0.000000
42
6.283185
0
LWPOLYLINE
5
11F
330
1F
100
AcDbEntity
8
0
6
DASHED
100
AcDbPolyline
90
4
70
1
43
0.000000
10
24.700000
20
-1.000000
10
25.900000
20
0.600000
10
26.700000
20
-1.000000
10
25.100000
20
-1.000000
0
LINE
5
120
330
1F
100
AcDbEntity
8
0
6
HIDDEN
100
AcDbLine
10
0.000000
20
-3.000000
30
0.000000
11
0.500000
21
-3.000000
31
0.000000
0
LINE
5
121
330
1F
100
AcDbEntity
8
0
6
HIDDEN
100
AcDbLine
10
1.100000
20
-3.000000
30
0.000000
11
2.500000
21
-3.000000
31
0.000000
0
LINE
5
122
330
1F
100
AcDbEntity
8
0
6
HIDDEN
100
AcDbLine
10
3.100000
20
-3.000000
30
0.000000
11
4.700000
21
-3.000000
31
0.000000
0
LINE
5
123
330
1F
100
AcDbEntity
8
0
6
HIDDEN
100
AcDbLine
10
5.300000
20
-3.000000
30
0.000000
11
7.500000
21
-3.000000
31
0.000000
0
LINE
5
124
330
1F
100
AcDbEntity
8
0
6
HIDDEN
100
AcDbLine
10
8.100000
20
-3.000000
30
0.000000
11
14.100000
21
-3.000000
31
0.000000
0
ARC
5
125
330
1F
100
AcDbEntity
8
0
6
HIDDEN
100
AcDbCircle
10
15.200000
20
-3.800000
30
0.000000
40
1.000000
100
AcDbArc
50
0.000000
51
100.000000
0
CIRCLE
5
126
330
1F
100
AcDbEntity
8
0
6
HIDDEN
100
AcDbCircle
10
17.900000
20
-3.200000
30
0.000000
40
1.000000
0
CIRCLE
5
127
330
1F
100
AcDbEntity
8
0
6
HIDDEN
100
AcDbCircle
10
20.500000
20
-3.200000
30
0.000000
40
1.150000
0
ELLIPSE
5
128
330
1F
100
AcDbEntity
8
0
6
HIDDEN
100
AcDbEllipse
10
23.200000
20
-3.200000
30
0.000000
11
1.000000
21
0.000000
31
0.000000
40
0.500000
41
0.000000
42
6.283185
0
LWPOLYLINE
5
129
330
1F
100
AcDbEntity
8
0
6
HIDDEN
100
AcDbPolyline
90
4
70
1
43
0.000000
10
24.700000
20
-4.000000
10
25.900000
20
-2.400000
10
26.700000
20
-4.000000
10
25.100000
20
-4.000000
0
LINE
5
12A
330
1F
100
AcDbEntity
8
0
6
CENTER
100
AcDbLine
10
0.000000
20
-6.000000
30
0.000000
11
0.500000
21
-6.000000
31
0.000000
0
LINE
5
12B
330
1F
100
AcDbEntity
8
0
6
CENTER
100
AcDbLine
10
1.100000
20
-6.000000
30
0.000000
11
2.500000
21
-6.000000
31
0.000000
0
LINE
5
12C
330
1F
100
AcDbEntity
8
0
6
CENTER
100
AcDbLine
10
3.100000
20
-6.000000
30
0.000000
11
4.700000
21
-6.000000
31
0.000000
0
LINE
5
12D
330
1F
100
AcDbEntity
8
0
6
CENTER
100
AcDbLine
10
5.300000
20
-6.000000
30
0.000000
11
7.500000
21
-6.000000
31
0.000000
0
LINE
5
12E
330
1F
100
AcDbEntity
8
0
6
CENTER
100
AcDbLine
10
8.100000
20
-6.000000
30
0.000000
11
14.100000
21
-6.000000
31
0.000000
0
ARC
5
12F
330
1F
100
AcDbEntity
8
0
6
CENTER
100
AcDbCircle
10
15.200000
20
-6.800000
30
0.000000
40
1.000000
100
AcDbArc
50
0.000000
51
100.000000
0
CIRCLE
5
130
330
1F
100
AcDbEntity
8
0
6
CENTER
100
AcDbCircle
10
17.900000
20
-6.200000
30
0.000000
40
1.000000
0
CIRCLE
5
131
330
1F
100
AcDbEntity
8
0
6
CENTER
100
AcDbCircle
10
20.500000
20
-6.200000
30
0.000000
40
1.150000
0
ELLIPSE
5
132
330
1F
100
AcDbEntity
8
0
6
CENTER
100
AcDbEllipse
10
23.200000
20
-6.200000
30
0.000000
11
1.000000
21
0.000000
31
0.000000
40
0.500000
41
0.000000
42
6.283185
0
LWPOLYLINE
5
133
330
1F
100
AcDbEntity
8
0
6
CENTER
100
AcDbPolyline
90
4
70
1
43
0.000000
10
24.700000
20
-7.000000
10
25.900000
20
-5.400000
10
26.700000
20
-7.000000
10
25.100000
20
-7.000000
0
LINE
5
134
330
1F
100
AcDbEntity
8
0
6
DASHDOT
100
AcDbLine
10
0.000000
20
-9.000000
30
0.000000
11
0.500000
21
-9.000000
31
0.000000
0
LINE
5
135
330
1F
100
AcDbEntity
8
0
6
DASHDOT
100
AcDbLine
10
1.100000
20
-9.000000
30
0.000000
11
2.500000
21
-9.000000
31
0.000000
0
LINE
5
136
330
1F
100
AcDbEntity
8
0
6
DASHDOT
100
AcDbLine
10
3.100000
20
-9.000000
30
0.000000
11
4.700000
21
-9.000000
31
0.000000
0
LINE
5
137
330
1F
100
AcDbEntity
8
0
6
DASHDOT
100
AcDbLine
10
5.300000
20
-9.000000
30
0.000000
11
7.500000
21
-9.000000
31
0.000000
0
LINE
5
138
330
1F
100
AcDbEntity
8
0
6
DASHDOT
100
AcDbLine
10
8.100000
20
-9.000000
30
0.000000
11
14.100000
21
-9.000000
31
0.000000
0
ARC
5
139
330
1F
100
AcDbEntity
8
0
6
DASHDOT
100
AcDbCircle
10
15.200000
20
-9.800000
30
0.000000
40
1.000000
100
AcDbArc
50
0.000000
51
100.000000
0
CIRCLE
5
13A
330
1F
100
AcDbEntity
8
0
6
DASHDOT
100
AcDbCircle
10
17.900000
20
-9.200000
30
0.000000
40
1.000000
0
CIRCLE
5
13B
330
1F
100
AcDbEntity
8
0
6
DASHDOT
100
AcDbCircle
10
20.500000
20
-9.200000
30
0.000000
40
1.150000
0
ELLIPSE
5
13C
330
1F
100
AcDbEntity
8
0
6
DASHDOT
100
AcDbEllipse
10
23.200000
20
-9.200000
30
0.000000
11
1.000000
21
0.000000
31
0.000000
40
0.500000
41
0.000000
42
6.283185
0
LWPOLYLINE
5
13D
330
1F
100
AcDbEntity
8
0
6
DASHDOT
100
AcDbPolyline
90
4
70
1
43
0.000000
10
24.700000
20
-10.000000
10
25.900000
20
-8.400000
10
26.700000
20
-10.000000
10
25.100000
20
-10.000000
0
LINE
5
13E
330
1F
100
AcDbEntity
8
0
6
DOT
100
AcDbLine
10
0.000000
20
-12.000000
30
0.000000
11
0.500000
21
-12.000000
31
0.000000
0
LINE
5
13F
330
1F
100
AcDbEntity
8
0
6
DOT
100
AcDbLine
10
1.100000
20
-12.000000
30
0.000000
11
2.500000
21
-12.000000
31
0.000000
0
LINE
5
140
330
1F
100
AcDbEntity
8
0
6
DOT
100
AcDbLine
10
3.100000
20
-12.000000
30
0.000000
11
4.700000
21
-12.000000
31
0.000000
0
LINE
5
141
330
1F
100
AcDbEntity
8
0
6
DOT
100
AcDbLine
10
5.300000
20
-12.000000
30
0.000000
11
7.500000
21
-12.000000
31
0.000000
0
LINE
5
142
330
1F
100
AcDbEntity
8
0
6
DOT
100
AcDbLine
10
8.100000
20
-12.000000
30
0.000000
11
14.100000
21
-12.000000
31
0.000000
0
ARC
5
143
330
1F
100
AcDbEntity
8
0
6
DOT
100
AcDbCircle
10
15.200000
20
-12.800000
30
0.000000
40
1.000000
100
AcDbArc
50
0.000000
51
100.000000
0
CIRCLE
5
144
330
1F
100
AcDbEntity
8
0
6
DOT
100
AcDbCircle
10
17.900000
20
-12.200000
30
0.000000
40
1.000000
0
CIRCLE
5
145
330
1F
100
AcDbEntity
8
0
6
DOT
100
AcDbCircle
10
20.500000
20
-12.200000
30
0.000000
40
1.150000
0
ELLIPSE
5
146
330
1F
100
AcDbEntity
8
0
6
DOT
100
AcDbEllipse
10
23.200000
20
-12.200000
30
0.000000
11
1.000000
21
0.000000
31
0.000000
40
0.500000
41
0.000000
42
6.283185
0
LWPOLYLINE
5
147
330
1F
100
AcDbEntity
8
0
6
DOT
100
AcDbPolyline
90
4
70
1
43
0.000000
10
24.700000
20
-13.000000
10
25.900000
20
-11.400000
10
26.700000
20
-13.000000
10
25.100000
20
-13.000000
0
ENDSEC
0
SECTION
2
OBJECTS
0
DICTIONARY
5
148
100
AcDbDictionary
281
1
0
ENDSEC
0
EOF
